<svg xmlns="http://www.w3.org/2000/svg" x="0px" y="0px" viewBox="0 0 512 512">
    <circle style="fill:#FD9A0C;" cx="256" cy="256" r="256" />
    <path style="fill:#FFAD38;" d="M256,380.603c-18.924,0-34.321,15.396-34.321,34.321s15.397,34.321,34.321,34.321
	c18.924,0,34.321-15.396,34.321-34.321S274.924,380.603,256,380.603z M256,397.482c6.243,0,11.715,3.308,14.797,8.252
	c-4.868,0.479-9.763,0.751-14.647,0.751h-0.318c-4.872,0-9.763-0.271-14.629-0.749C244.285,400.79,249.757,397.482,256,397.482z
	 M256,432.365c-6.847,0-12.768-3.976-15.621-9.731c5.139,0.479,10.3,0.729,15.434,0.729h0.354c5.146,0,10.312-0.25,15.453-0.729
	C268.768,428.39,262.847,432.365,256,432.365z" />
    <g>
        <path style="fill:#FFC066;" d="M205.267,406.84c1.722-4.331-0.394-9.238-4.724-10.96c-9.587-3.812-18.631-8.548-27.062-14.068
		c-0.05-0.035-0.101-0.065-0.151-0.099c-6.395-4.198-12.428-8.855-18.062-13.925c1.955-12.304,0.394-25.102-4.534-36.539
		c-1.844-4.281-6.811-6.257-11.088-4.412c-4.282,1.844-6.257,6.809-4.412,11.09c1.698,3.941,2.849,8.101,3.461,12.34
		c-2.422-3.014-4.73-6.119-6.914-9.314c-0.21-0.367-0.442-0.72-0.703-1.049c-4.09-6.097-7.744-12.502-10.919-19.18
		c6.511-10.616,9.965-23.036,9.79-35.486c-0.065-4.62-3.829-8.321-8.436-8.321c-0.039,0-0.08,0-0.12,0
		c-4.661,0.066-8.386,3.897-8.32,8.558c0.06,4.26-0.461,8.514-1.502,12.637c-1.126-3.873-2.12-7.803-2.941-11.796
		c-1.547-7.522-2.492-15.043-2.885-22.511c10.072-7.315,18.011-17.465,22.612-29.029c1.723-4.331-0.392-9.239-4.722-10.961
		c-4.328-1.723-9.239,0.392-10.961,4.722c-1.581,3.972-3.699,7.716-6.251,11.137c0.428-3.91,0.998-7.789,1.726-11.629
		c0.059-0.236,0.104-0.474,0.142-0.713c1.435-7.373,3.413-14.598,5.907-21.62c12.105-2.905,23.322-9.244,31.997-18.166
		c3.25-3.342,3.174-8.685-0.167-11.934c-3.343-3.249-8.687-3.173-11.934,0.168c-2.977,3.062-6.361,5.706-10.023,7.889
		c1.907-3.48,3.955-6.883,6.13-10.204c4.215-6.432,8.892-12.509,14.02-18.213c3.434,0.545,6.904,0.839,10.375,0.839
		c8.962,0,17.912-1.805,26.154-5.355c4.282-1.844,6.257-6.809,4.412-11.09c-1.843-4.281-6.81-6.258-11.088-4.412
		c-3.952,1.701-8.123,2.855-12.374,3.467c2.925-2.354,5.94-4.61,9.055-6.751c0.544-0.282,1.048-0.626,1.512-1.014
		c10.872-7.276,22.848-13.23,35.772-17.558c4.42-1.48,6.803-6.262,5.324-10.682c-1.48-4.419-6.264-6.805-10.682-5.324
		c-9.101,3.047-17.777,6.823-25.99,11.231c1.311-5.194,3.455-10.175,6.372-14.677c2.535-3.911,1.419-9.137-2.492-11.672
		c-3.911-2.533-9.135-1.419-11.672,2.492c-6.783,10.467-10.467,22.845-10.59,35.321c-12.044,8.658-22.767,18.825-31.98,30.145
		c-0.782-5.312-0.711-10.748,0.264-16.035c0.845-4.584-2.185-8.985-6.77-9.83c-4.581-0.847-8.984,2.184-9.83,6.769
		c-2.266,12.291-0.919,25.167,3.765,36.762c-5.419,8.759-10.035,18.009-13.771,27.635c-0.007,0.019-0.016,0.037-0.022,0.056
		c-1.571,4.051-2.981,8.168-4.236,12.342c-2.763-4.615-4.781-9.671-5.905-14.938c-0.974-4.558-5.46-7.465-10.016-6.492
		c-4.558,0.973-7.464,5.458-6.492,10.015c2.608,12.217,8.774,23.59,17.531,32.506c-2.342,14.29-2.84,29.032-1.32,43.903
		c-4.319-3.206-8.118-7.104-11.172-11.541c-2.646-3.839-7.899-4.809-11.738-2.165c-3.839,2.643-4.808,7.898-2.166,11.738
		c7.09,10.295,17.147,18.449,28.661,23.333c3.399,14.49,8.654,28.259,15.522,41.047c-5.204-1.31-10.195-3.455-14.705-6.377
		c-3.91-2.535-9.135-1.42-11.672,2.491c-2.535,3.911-1.419,9.137,2.492,11.672c10.477,6.791,22.867,10.472,35.354,10.589
		c8.561,11.916,18.666,22.675,30.092,31.985c-5.307,0.78-10.735,0.707-16.017-0.267c-4.59-0.85-8.984,2.185-9.83,6.77
		c-0.845,4.583,2.185,8.984,6.77,9.829c3.909,0.721,7.876,1.077,11.841,1.077c8.501,0,16.991-1.658,24.892-4.848
		c8.327,5.153,17.162,9.631,26.456,13.327c1.023,0.406,2.078,0.6,3.117,0.6C200.777,412.163,203.952,410.148,205.267,406.84z" />
        <path style="fill:#FFC066;" d="M445.384,259.199c-3.839-2.644-9.093-1.672-11.738,2.165c-3.054,4.436-6.854,8.335-11.172,11.541
		c1.52-14.869,1.022-29.612-1.32-43.903c8.757-8.916,14.922-20.289,17.531-32.506c0.972-4.558-1.933-9.043-6.492-10.015
		c-4.556-0.971-9.043,1.932-10.016,6.492c-1.124,5.267-3.143,10.323-5.905,14.938c-1.255-4.173-2.665-8.29-4.236-12.341
		c-0.009-0.025-0.02-0.047-0.029-0.072c-3.735-9.62-8.348-18.865-13.766-27.62c4.685-11.595,6.031-24.47,3.765-36.762
		c-0.846-4.584-5.248-7.616-9.83-6.769c-4.583,0.845-7.615,5.246-6.77,9.83c0.976,5.289,1.046,10.723,0.264,16.035
		c-9.214-11.32-19.936-21.486-31.98-30.145c-0.123-12.475-3.807-24.854-10.59-35.321c-2.536-3.911-7.762-5.027-11.672-2.492
		c-3.911,2.535-5.028,7.761-2.492,11.672c2.918,4.502,5.061,9.483,6.372,14.677c-8.215-4.409-16.89-8.185-25.992-11.232
		c-4.422-1.482-9.203,0.904-10.682,5.324c-1.479,4.42,0.905,9.202,5.324,10.682c12.925,4.328,24.901,10.282,35.775,17.559
		c0.464,0.388,0.968,0.73,1.51,1.013c3.116,2.14,6.132,4.396,9.056,6.751c-4.251-0.611-8.423-1.764-12.374-3.467
		c-4.278-1.843-9.245,0.131-11.088,4.412c-1.844,4.281,0.131,9.246,4.412,11.09c8.242,3.55,17.191,5.355,26.154,5.355
		c3.47,0,6.941-0.295,10.375-0.839c5.132,5.709,9.812,11.792,14.004,18.188c2.19,3.343,4.239,6.746,6.146,10.228
		c-3.662-2.182-7.046-4.827-10.023-7.889c-3.248-3.342-8.591-3.417-11.934-0.168c-3.342,3.249-3.416,8.593-0.167,11.934
		c8.675,8.922,19.893,15.261,31.997,18.166c2.495,7.024,4.474,14.252,5.908,21.627c0.037,0.236,0.082,0.471,0.14,0.706
		c0.728,3.839,1.3,7.719,1.726,11.63c-2.552-3.422-4.67-7.165-6.251-11.137c-1.722-4.331-6.633-6.446-10.961-4.722
		c-4.331,1.723-6.446,6.631-4.722,10.961c4.6,11.564,12.54,21.713,22.612,29.029c-0.393,7.468-1.338,14.989-2.885,22.511
		c-0.821,3.994-1.815,7.924-2.941,11.796c-1.041-4.124-1.561-8.378-1.501-12.637c0.066-4.661-3.659-8.491-8.32-8.558
		c-0.041,0-0.081,0-0.12,0c-4.606,0-8.371,3.701-8.436,8.321c-0.176,12.45,3.279,24.87,9.79,35.486
		c-3.172,6.675-6.824,13.078-10.913,19.171c-0.267,0.335-0.503,0.695-0.718,1.071c-2.181,3.191-4.485,6.291-6.904,9.3
		c0.613-4.239,1.764-8.398,3.461-12.339c1.844-4.281-0.131-9.246-4.412-11.09c-4.281-1.842-9.246,0.132-11.088,4.412
		c-4.926,11.437-6.488,24.236-4.534,36.539c-5.624,5.061-11.648,9.711-18.03,13.904c-0.062,0.042-0.126,0.079-0.186,0.122
		c-8.428,5.518-17.469,10.252-27.053,14.064c-4.331,1.722-6.447,6.63-4.723,10.96c1.315,3.308,4.488,5.324,7.844,5.324
		c1.038,0,2.093-0.192,3.117-0.6c9.293-3.695,18.125-8.174,26.451-13.324c7.902,3.189,16.391,4.848,24.893,4.848
		c3.965,0,7.934-0.356,11.841-1.077c4.583-0.845,7.615-5.246,6.77-9.829c-0.846-4.584-5.245-7.616-9.83-6.77
		c-5.283,0.973-10.711,1.047-16.018,0.267c11.427-9.308,21.532-20.068,30.092-31.985c12.487-0.117,24.879-3.798,35.355-10.589
		c3.911-2.534,5.028-7.76,2.492-11.672c-2.535-3.911-7.762-5.028-11.672-2.491c-4.51,2.922-9.502,5.066-14.705,6.377
		c6.868-12.787,12.123-26.555,15.522-41.046c11.514-4.885,21.57-13.037,28.661-23.333
		C450.192,267.097,449.223,261.842,445.384,259.199z" />
    </g>
    <g>
        <path style="fill:#FFAD38;" d="M256,37.134c4.964,0,9.002-4.039,9.002-9.002S260.964,19.13,256,19.13
		c-4.964,0-9.002,4.039-9.002,9.002S251.036,37.134,256,37.134z" />
        <path style="fill:#FFAD38;" d="M208.623,42.113c0.629,0,1.26-0.066,1.868-0.196c2.354-0.498,4.373-1.886,5.683-3.905
		c1.311-2.019,1.757-4.427,1.254-6.78c-0.881-4.128-4.583-7.124-8.803-7.124c-0.629,0-1.26,0.066-1.876,0.198
		c-2.353,0.501-4.369,1.888-5.678,3.907c-1.308,2.016-1.752,4.422-1.256,6.748C200.684,39.106,204.388,42.113,208.623,42.113z" />
        <path style="fill:#FFAD38;" d="M163.318,56.834c1.27,0,2.504-0.262,3.654-0.775c2.2-0.977,3.887-2.751,4.75-4.998
		c0.863-2.245,0.799-4.69-0.178-6.889c-1.444-3.245-4.672-5.343-8.226-5.343c-1.27,0-2.504,0.262-3.665,0.78
		c-4.53,2.02-6.577,7.35-4.561,11.883C156.536,54.738,159.765,56.834,163.318,56.834z" />
        <path style="fill:#FFAD38;" d="M122.063,80.653c1.91,0,3.737-0.592,5.293-1.721c4.013-2.918,4.905-8.557,1.994-12.566
		c-1.688-2.328-4.412-3.718-7.288-3.718c-1.91,0-3.737,0.592-5.284,1.714c-1.951,1.414-3.233,3.506-3.609,5.887
		c-0.375,2.381,0.203,4.764,1.606,6.684C116.463,79.262,119.187,80.653,122.063,80.653z" />
        <path style="fill:#FFAD38;" d="M54.158,149.862c1.367,0.79,2.925,1.206,4.502,1.206c3.21,0,6.2-1.728,7.789-4.489
		c1.206-2.083,1.529-4.51,0.909-6.836c-0.62-2.326-2.111-4.269-4.196-5.473c-1.367-0.79-2.925-1.206-4.502-1.206
		c-3.21,0-6.2,1.728-7.789,4.489c-1.206,2.083-1.529,4.51-0.909,6.836S52.073,148.658,54.158,149.862z" />
        <path style="fill:#FFAD38;" d="M42.068,177.024c-0.9-0.293-1.838-0.442-2.785-0.442c-3.916,0-7.358,2.505-8.563,6.232
		c-0.739,2.284-0.546,4.719,0.544,6.859c1.095,2.146,2.958,3.736,5.236,4.473c0.901,0.293,1.839,0.442,2.786,0.442
		c3.904,0,7.341-2.494,8.563-6.232c0.739-2.284,0.546-4.719-0.544-6.859C46.211,179.351,44.347,177.761,42.068,177.024z" />
        <path style="fill:#FFAD38;" d="M28.442,241.135c0.293,0.03,0.644,0.048,0.937,0.048c4.629,0,8.479-3.473,8.952-8.048
		c0.255-2.393-0.439-4.743-1.951-6.615c-1.516-1.872-3.668-3.042-6.046-3.29c-0.298-0.032-0.657-0.051-0.956-0.051
		c-4.628,0-8.477,3.473-8.949,8.048c-0.255,2.393,0.438,4.742,1.951,6.614C23.893,239.713,26.046,240.882,28.442,241.135z" />
        <path style="fill:#FFAD38;" d="M36.38,285.48c1.513-1.872,2.207-4.221,1.953-6.586c-0.475-4.605-4.324-8.077-8.954-8.077
		c-0.295,0-0.648,0.019-0.941,0.049c-2.395,0.252-4.546,1.421-6.06,3.293c-1.515,1.872-2.207,4.221-1.955,6.584
		c0.476,4.606,4.324,8.078,8.953,8.078c0.294,0,0.647-0.019,0.938-0.048C32.712,288.52,34.864,287.351,36.38,285.48z" />
        <path style="fill:#FFAD38;" d="M39.286,317.413c-0.947,0-1.885,0.149-2.772,0.438c-2.292,0.742-4.156,2.332-5.251,4.477
		c-1.09,2.139-1.284,4.574-0.544,6.859c1.205,3.727,4.647,6.232,8.563,6.232c0.947,0,1.885-0.149,2.772-0.438
		c2.292-0.742,4.156-2.332,5.251-4.477c1.09-2.139,1.284-4.574,0.536-6.886C46.628,319.907,43.189,317.413,39.286,317.413z" />
        <path style="fill:#FFAD38;" d="M58.661,360.932c-1.578,0-3.135,0.417-4.502,1.206c-2.085,1.204-3.575,3.147-4.196,5.473
		c-0.621,2.326-0.298,4.753,0.897,6.814c1.601,2.783,4.591,4.511,7.802,4.511c1.578,0,3.135-0.417,4.502-1.206
		c2.085-1.204,3.575-3.147,4.196-5.473s0.298-4.753-0.897-6.814C64.861,362.66,61.87,360.932,58.661,360.932z" />
        <path style="fill:#FFAD38;" d="M86.661,399.471c-2.23,0-4.373,0.823-6.021,2.311c-3.69,3.321-3.99,9.024-0.67,12.713
		c1.705,1.894,4.143,2.98,6.691,2.98c2.227,0,4.366-0.82,6.029-2.318c3.681-3.322,3.977-9.021,0.667-12.699
		C91.654,400.56,89.212,399.471,86.661,399.471z" />
        <path style="fill:#FFAD38;" d="M127.347,433.061c-1.547-1.122-3.375-1.714-5.284-1.714c-2.876,0-5.6,1.39-7.269,3.692
		c-1.422,1.946-1.998,4.33-1.624,6.711c0.376,2.381,1.658,4.473,3.61,5.887c1.546,1.122,3.374,1.714,5.283,1.714
		c2.876,0,5.6-1.39,7.284-3.711C132.261,441.625,131.369,435.985,127.347,433.061z" />
        <path style="fill:#FFAD38;" d="M166.983,455.946c-1.161-0.518-2.395-0.78-3.665-0.78c-3.552,0-6.781,2.098-8.226,5.344
		c-2.017,4.531,0.029,9.862,4.561,11.882c1.161,0.518,2.395,0.78,3.665,0.78c3.552,0,6.781-2.098,8.226-5.344
		c0.977-2.198,1.041-4.643,0.178-6.888C170.858,458.692,169.172,456.918,166.983,455.946z" />
        <path style="fill:#FFAD38;" d="M210.498,470.084c-0.616-0.132-1.247-0.198-1.876-0.198c-4.236,0-7.94,3.008-8.803,7.126
		c-0.501,2.351-0.057,4.758,1.25,6.774c1.309,2.018,3.325,3.405,5.678,3.907c0.616,0.132,1.247,0.198,1.876,0.198
		c4.22,0,7.922-2.997,8.803-7.124c0.502-2.354,0.057-4.761-1.254-6.78C214.863,471.968,212.845,470.581,210.498,470.084z" />
        <path style="fill:#FFAD38;" d="M256,474.866c-4.964,0-9.002,4.039-9.002,9.002c0,4.964,4.039,9.002,9.002,9.002
		c4.964,0,9.002-4.039,9.002-9.002C265.002,478.905,260.964,474.866,256,474.866z" />
        <path style="fill:#FFAD38;" d="M303.377,469.887c-0.629,0-1.26,0.066-1.868,0.196c-2.354,0.499-4.373,1.886-5.683,3.905
		c-1.311,2.019-1.757,4.427-1.254,6.78c0.881,4.128,4.583,7.124,8.803,7.124c0.629,0,1.26-0.066,1.876-0.198
		c2.353-0.501,4.369-1.888,5.678-3.907c1.308-2.016,1.752-4.422,1.256-6.748C311.316,472.894,307.612,469.887,303.377,469.887z" />
        <path style="fill:#FFAD38;" d="M348.682,455.166c-1.27,0-2.504,0.262-3.654,0.775c-2.2,0.977-3.887,2.751-4.75,4.998
		c-0.863,2.245-0.799,4.69,0.178,6.889c1.444,3.245,4.672,5.343,8.226,5.343c1.27,0,2.504-0.262,3.665-0.78
		c4.53-2.02,6.577-7.35,4.561-11.883C355.464,457.262,352.235,455.166,348.682,455.166z" />
        <path style="fill:#FFAD38;" d="M389.937,431.347c-1.91,0-3.737,0.592-5.293,1.721c-4.013,2.918-4.905,8.557-1.994,12.566
		c1.688,2.328,4.412,3.718,7.288,3.718c1.91,0,3.737-0.592,5.284-1.714c1.951-1.414,3.233-3.506,3.609-5.887
		c0.375-2.381-0.203-4.764-1.606-6.684C395.537,432.738,392.813,431.347,389.937,431.347z" />
        <path style="fill:#FFAD38;" d="M431.37,401.789c-1.658-1.496-3.799-2.318-6.029-2.318c-2.552,0-4.994,1.088-6.692,2.98
		c-3.315,3.684-3.019,9.385,0.67,12.713c1.656,1.49,3.794,2.311,6.022,2.311c2.549,0,4.987-1.086,6.692-2.98
		C435.351,410.806,435.05,405.102,431.37,401.789z" />
        <path style="fill:#FFAD38;" d="M457.842,362.138c-1.367-0.79-2.925-1.206-4.502-1.206c-3.21,0-6.2,1.728-7.789,4.489
		c-1.206,2.083-1.529,4.51-0.909,6.836s2.111,4.269,4.196,5.473c1.367,0.79,2.925,1.206,4.502,1.206c3.21,0,6.2-1.728,7.789-4.489
		c1.206-2.083,1.529-4.51,0.909-6.836C461.418,365.286,459.927,363.342,457.842,362.138z" />
        <path style="fill:#FFAD38;" d="M475.499,317.854c-0.901-0.293-1.839-0.442-2.786-0.442c-3.904,0-7.341,2.494-8.563,6.232
		c-0.739,2.284-0.546,4.719,0.543,6.859c1.095,2.146,2.958,3.736,5.237,4.473c0.9,0.293,1.838,0.442,2.785,0.442
		c3.916,0,7.358-2.505,8.563-6.232c0.739-2.284,0.546-4.719-0.544-6.859C479.642,320.181,477.778,318.591,475.499,317.854z" />
        <path style="fill:#FFAD38;" d="M483.558,270.865c-0.293-0.03-0.644-0.048-0.937-0.048c-4.629,0-8.479,3.471-8.952,8.048
		c-0.255,2.393,0.439,4.743,1.951,6.615c1.516,1.872,3.668,3.042,6.046,3.29c0.298,0.032,0.657,0.051,0.956,0.051
		c4.628,0,8.478-3.473,8.949-8.048c0.255-2.393-0.438-4.742-1.951-6.614C488.107,272.287,485.954,271.118,483.558,270.865z" />
        <path style="fill:#FFAD38;" d="M475.62,226.52c-1.513,1.872-2.207,4.221-1.953,6.587c0.475,4.605,4.324,8.076,8.954,8.076
		c0.295,0,0.648-0.019,0.941-0.05c2.395-0.252,4.546-1.421,6.06-3.293c1.515-1.872,2.207-4.221,1.955-6.584
		c-0.475-4.606-4.324-8.078-8.953-8.078c-0.294,0-0.647,0.019-0.939,0.048C479.288,223.48,477.136,224.649,475.62,226.52z" />
        <path style="fill:#FFAD38;" d="M472.714,194.587c0.947,0,1.885-0.149,2.772-0.438c2.292-0.742,4.156-2.332,5.25-4.477
		c1.09-2.139,1.284-4.574,0.544-6.859c-1.205-3.727-4.647-6.232-8.563-6.232c-0.947,0-1.885,0.149-2.772,0.438
		c-2.292,0.742-4.156,2.332-5.251,4.477c-1.09,2.139-1.284,4.574-0.536,6.886C465.372,192.093,468.811,194.587,472.714,194.587z" />
        <path style="fill:#FFAD38;" d="M453.339,133.064c-1.578,0-3.135,0.417-4.502,1.206c-2.085,1.204-3.575,3.147-4.196,5.473
		c-0.621,2.326-0.298,4.753,0.897,6.814c1.601,2.783,4.591,4.511,7.802,4.511c1.578,0,3.135-0.417,4.502-1.206
		c2.085-1.204,3.575-3.147,4.196-5.473s0.298-4.753-0.897-6.814C459.54,134.792,456.55,133.064,453.339,133.064z" />
        <path style="fill:#FFAD38;" d="M425.339,112.529c2.23,0,4.373-0.823,6.021-2.311c3.69-3.321,3.99-9.024,0.67-12.713
		c-1.705-1.894-4.143-2.98-6.691-2.98c-2.227,0-4.366,0.82-6.029,2.318c-3.681,3.322-3.977,9.021-0.667,12.699
		C420.346,111.44,422.788,112.529,425.339,112.529z" />
        <path style="fill:#FFAD38;" d="M93.358,109.541c3.309-3.677,3.013-9.377-0.667-12.699c-1.664-1.498-3.802-2.318-6.029-2.318
		c-2.549,0-4.987,1.086-6.691,2.98c-3.321,3.69-3.021,9.394,0.67,12.713c1.649,1.488,3.79,2.311,6.021,2.311
		C89.212,112.529,91.654,111.44,93.358,109.541z" />
        <path style="fill:#FFAD38;" d="M384.653,78.939c1.547,1.122,3.375,1.714,5.284,1.714c2.876,0,5.6-1.39,7.269-3.692
		c1.422-1.946,1.998-4.33,1.624-6.711c-0.376-2.381-1.658-4.473-3.61-5.887c-1.546-1.122-3.374-1.714-5.283-1.714
		c-2.876,0-5.6,1.39-7.284,3.711C379.739,70.375,380.631,76.015,384.653,78.939z" />
        <path style="fill:#FFAD38;" d="M345.017,56.054c1.161,0.518,2.395,0.78,3.665,0.78c3.552,0,6.781-2.098,8.226-5.344
		c2.017-4.531-0.029-9.862-4.561-11.882c-1.161-0.518-2.395-0.78-3.665-0.78c-3.553,0-6.781,2.098-8.226,5.344
		c-0.977,2.198-1.041,4.643-0.178,6.888C341.142,53.308,342.828,55.082,345.017,56.054z" />
        <path style="fill:#FFAD38;" d="M301.502,41.916c0.616,0.132,1.247,0.198,1.876,0.198c4.236,0,7.94-3.008,8.803-7.126
		c0.501-2.351,0.057-4.758-1.25-6.774c-1.309-2.018-3.325-3.405-5.678-3.907c-0.616-0.132-1.247-0.198-1.876-0.198
		c-4.22,0-7.922,2.997-8.803,7.124c-0.502,2.354-0.057,4.761,1.254,6.78C297.137,40.032,299.155,41.419,301.502,41.916z" />
    </g>
    <g>
        <path style="fill:#FFC066;" d="M243.243,275.268c10.471,0,28.034-6.276,28.034-48.306c0-42.031-17.563-48.307-28.034-48.307
		c-10.47,0-28.033,6.276-28.033,48.307C215.21,268.992,232.773,275.268,243.243,275.268z M243.243,195.535
		c8.225,0,11.155,16.234,11.155,31.428c0,15.193-2.93,31.427-11.155,31.427s-11.154-16.234-11.154-31.427
		C232.089,211.77,235.018,195.535,243.243,195.535z" />
        <path style="fill:#FFC066;" d="M306.893,275.268c10.471,0,28.034-6.276,28.034-48.306c0-42.031-17.563-48.307-28.034-48.307
		c-10.47,0-28.033,6.276-28.033,48.307C278.859,268.992,296.423,275.268,306.893,275.268z M306.893,195.535
		c8.225,0,11.155,16.234,11.155,31.428c0,15.193-2.93,31.427-11.155,31.427c-8.225,0-11.154-16.234-11.154-31.427
		C295.739,211.77,298.668,195.535,306.893,195.535z" />
        <path style="fill:#FFC066;" d="M199.188,275.057c4.662,0,8.44-3.779,8.44-8.44v-79.734c0-3.158-1.762-6.052-4.57-7.5
		c-2.804-1.448-6.186-1.209-8.759,0.62L184,187.323c-3.799,2.7-4.69,7.969-1.991,11.768c2.032,2.858,5.51,4.071,8.739,3.345v64.179
		C190.749,271.278,194.526,275.057,199.188,275.057z" />
    </g>
    <path style="fill:#FFAD38;" d="M323.718,294.065c-3.216-3.375-8.555-3.504-11.932-0.29l-24.984,23.798l-24.986-23.798
	c-3.259-3.106-8.382-3.105-11.642,0l-24.98,23.796l-24.979-23.796c-3.372-3.215-8.715-3.084-11.932,0.289
	c-3.214,3.375-3.084,8.718,0.29,11.932l30.8,29.343c1.629,1.553,3.726,2.329,5.821,2.329s4.192-0.776,5.821-2.329l24.98-23.797
	l24.986,23.798c3.259,3.105,8.382,3.105,11.642,0l30.806-29.343C326.802,302.782,326.932,297.44,323.718,294.065z" />
</svg>