<svg width="11" height="19" viewBox="0 0 11 19" fill="none" xmlns="http://www.w3.org/2000/svg">
<path d="M6.79453 19H3.69092C3.17251 19 2.75081 18.5866 2.75081 18.0784V11.2154H0.940103C0.421701 11.2154 0 10.8019 0 10.2938V7.35302C0 6.8448 0.421701 6.43137 0.940103 6.43137H2.75081V4.95874C2.75081 3.49857 3.2185 2.25628 4.10315 1.36638C4.9918 0.47242 6.23369 0 7.69456 0L10.0615 0.0037689C10.579 0.00463867 11 0.41806 11 0.925415V3.65585C11 4.16408 10.5784 4.5775 10.0602 4.5775L8.46654 4.57808C7.98052 4.57808 7.85676 4.67361 7.8303 4.70289C7.78668 4.75145 7.73478 4.88873 7.73478 5.26779V6.43123H9.94042C10.1065 6.43123 10.2673 6.47138 10.4056 6.54705C10.7038 6.71042 10.8893 7.01933 10.8893 7.35316L10.8881 10.2939C10.8881 10.8019 10.4664 11.2153 9.94797 11.2153H7.73478V18.0784C7.73478 18.5866 7.31293 19 6.79453 19ZM3.88698 17.8861H6.59846V10.7168C6.59846 10.3774 6.88014 10.1014 7.22613 10.1014H9.7519L9.75294 7.54523H7.22599C6.87999 7.54523 6.59846 7.26923 6.59846 6.92989V5.26779C6.59846 4.83263 6.64356 4.33774 6.97861 3.96577C7.38346 3.51611 8.02148 3.46422 8.46625 3.46422L9.86383 3.46364V1.11734L7.69367 1.11386C5.34593 1.11386 3.88698 2.58722 3.88698 4.95874V6.92989C3.88698 7.26909 3.60545 7.54523 3.25946 7.54523H1.13617V10.1014H3.25946C3.60545 10.1014 3.88698 10.3774 3.88698 10.7168V17.8861ZM10.0593 1.11763H10.0595H10.0593Z" fill="white"/>
</svg>
