<svg width="19" height="19" viewBox="0 0 19 19" fill="none" xmlns="http://www.w3.org/2000/svg">
<path d="M5.14315 0H13.8569C16.6928 0 19 2.30716 19 5.14312V13.857C19 16.6928 16.6928 19 13.8569 19H5.14301C2.30719 19 3.62396e-05 16.6928 3.62396e-05 13.857V5.14312C3.62396e-05 2.30716 2.30719 0 5.14315 0V0ZM1.1139 13.857C1.1139 16.0786 2.92138 17.8861 5.14315 17.8861H13.8569C16.0787 17.8861 17.8861 16.0786 17.8861 13.857V5.14312C17.8861 2.92134 16.0787 1.11386 13.8569 1.11386H5.14301C2.92138 1.11386 1.1139 2.92134 1.1139 5.14312V13.857Z" fill="white"/>
<path d="M9.50015 4.30469C12.3648 4.30469 14.6953 6.63518 14.6953 9.49985C14.6953 12.3645 12.3648 14.695 9.50015 14.695C6.63549 14.695 4.305 12.3645 4.305 9.49985C4.305 6.63518 6.63549 4.30469 9.50015 4.30469ZM9.50015 13.5811C11.7505 13.5811 13.5815 11.7503 13.5815 9.49985C13.5815 7.24951 11.7505 5.41855 9.50015 5.41855C7.24968 5.41855 5.41886 7.24951 5.41886 9.49985C5.41886 11.7503 7.24968 13.5811 9.50015 13.5811Z" fill="white"/>
<path d="M4.18071 2.45972C5.02727 2.45972 5.71582 3.14841 5.71582 3.99482C5.71582 4.84138 5.02727 5.53008 4.18071 5.53008C3.33416 5.53008 2.64546 4.84138 2.64546 3.99482C2.64546 3.14827 3.33416 2.45972 4.18071 2.45972ZM4.18071 4.41607C4.41294 4.41607 4.60196 4.22705 4.60196 3.99482C4.60196 3.76246 4.41294 3.57358 4.18071 3.57358C3.94835 3.57358 3.75932 3.76246 3.75932 3.99482C3.75932 4.22705 3.94835 4.41607 4.18071 4.41607Z" fill="white"/>
</svg>
