<svg width="19" height="19" viewBox="0 0 19 19" fill="none" xmlns="http://www.w3.org/2000/svg">
<g clip-path="url(#clip0_1_985)">
<path d="M18.7066 1.88736C18.4746 1.60353 18.127 1.44727 17.7277 1.44727C17.5107 1.44727 17.2808 1.49293 17.0445 1.58324L0.961395 7.72266C0.107879 8.04839 -0.00707314 8.53719 0.000319737 8.79956C0.00771261 9.06194 0.150207 9.54349 1.02083 9.8205C1.02605 9.8221 1.03127 9.82369 1.03648 9.82514L4.37256 10.7798L6.17671 15.9389C6.42271 16.6423 6.97486 17.0792 7.61789 17.0792C8.02334 17.0792 8.42212 16.9093 8.77118 16.588L10.8347 14.6881L13.8276 17.098C13.8279 17.0983 13.8284 17.0984 13.8286 17.0987L13.8571 17.1216C13.8597 17.1237 13.8624 17.1258 13.865 17.1279C14.1977 17.3859 14.5608 17.5221 14.9155 17.5223H14.9157C15.6087 17.5223 16.1606 17.0093 16.3213 16.2155L18.9566 3.20344C19.0624 2.68115 18.9737 2.21381 18.7066 1.88736V1.88736ZM5.4886 10.5985L11.9249 7.3104L7.91723 11.5688C7.85157 11.6386 7.80503 11.724 7.78213 11.8169L7.00936 14.9471L5.4886 10.5985ZM8.01696 15.769C7.99029 15.7935 7.96347 15.8154 7.93666 15.8356L8.65362 12.9317L9.95781 13.982L8.01696 15.769ZM17.8654 2.98238L15.2302 15.9946C15.2049 16.1191 15.1238 16.4089 14.9155 16.4089C14.8126 16.4089 14.6833 16.3528 14.551 16.2509L11.1595 13.5201C11.1591 13.5197 11.1585 13.5193 11.1579 13.519L9.13996 11.894L14.9355 5.73572C15.1211 5.53857 15.1379 5.23663 14.9754 5.02006C14.8128 4.80349 14.5181 4.73536 14.277 4.85857L4.74481 9.72831L1.36337 8.76086L17.4416 2.62331C17.5774 2.57142 17.6722 2.56055 17.7277 2.56055C17.7618 2.56055 17.8224 2.56461 17.8449 2.59229C17.8744 2.62839 17.9121 2.75146 17.8654 2.98238V2.98238Z" fill="white"/>
</g>
<defs>
<clipPath id="clip0_1_985">
<rect width="19" height="19" fill="white"/>
</clipPath>
</defs>
</svg>
