<svg width="36" height="36" viewBox="0 0 36 36" fill="none" xmlns="http://www.w3.org/2000/svg">
<g clip-path="url(#clip0)">
<path d="M28.7826 0L25.9546 0L21.6776 0L7.54667 0C6.25482 0 5.20386 1.05096 5.20386 2.34288L5.20386 33.6571C5.20386 34.949 6.25482 36.0001 7.54674 36.0001H28.7825C29.8928 36.0001 30.796 35.0968 30.796 33.9867V32.1256V30.3703V29.2201V27.3586L30.796 2.01333C30.7959 0.903234 29.8928 0 28.7826 0ZM22.2122 1.06931L25.42 1.06931V5.00569L24.1517 3.9825C24.0538 3.90354 23.935 3.86395 23.8161 3.86395C23.6972 3.86395 23.5783 3.90347 23.4804 3.9825L22.2122 5.00569V1.06931ZM6.27317 2.34288C6.27317 1.6406 6.84446 1.06931 7.54674 1.06931L10.0188 1.06931L10.0188 31.3142H7.54674C7.07733 31.3142 6.64013 31.4535 6.27317 31.6921L6.27317 2.34288ZM29.7265 33.9867C29.7266 34.508 29.304 34.9308 28.7825 34.9308H7.54667C6.88116 34.9308 6.33413 34.4174 6.27858 33.766C6.65342 34.0083 7.09006 34.1387 7.54695 34.1387H10.408C10.7032 34.1387 10.9426 33.8993 10.9426 33.604C10.9426 33.3088 10.7032 33.0694 10.408 33.0694H7.54702C7.22197 33.0694 6.91632 32.9473 6.67979 32.7268C6.90739 32.5146 7.21163 32.3836 7.54674 32.3836H22.7429H24.7745H28.7825C29.123 32.3836 29.444 32.2983 29.7254 32.1484C29.7131 32.6582 29.2955 33.0693 28.7828 33.0693H12.9032C12.608 33.0693 12.3686 33.3087 12.3686 33.604C12.3686 33.8992 12.608 34.1386 12.9032 34.1386H28.7828C29.1237 34.1386 29.4449 34.0531 29.7266 33.9029V33.9867H29.7265ZM29.7266 27.3585V29.22V30.3702C29.7266 30.8907 29.3032 31.3143 28.7825 31.3143H24.7745H22.7429L11.0881 31.3143L11.0881 1.06931L21.1429 1.06931V6.12408C21.1429 6.33002 21.2612 6.51769 21.447 6.60649C21.6328 6.6953 21.8531 6.66956 22.0133 6.54019L23.8161 5.0857L25.6189 6.54019C25.7158 6.61837 25.8347 6.65873 25.9547 6.65873C26.033 6.65873 26.1118 6.64158 26.1852 6.60649C26.3709 6.51769 26.4893 6.33002 26.4893 6.12408V1.06931L28.7826 1.06931C29.3031 1.06931 29.7267 1.4928 29.7267 2.0134L29.7267 27.3585H29.7266Z" fill="#303F9F"/>
<path d="M25.0717 8.90411H23.2105C22.9153 8.90411 22.6759 9.14353 22.6759 9.43877C22.6759 9.73401 22.9153 9.97343 23.2105 9.97343H25.0717C25.6164 9.97343 26.0578 10.4149 26.0578 10.9596V15.4028C26.0578 15.9474 25.6164 16.389 25.0717 16.389H14.7476C14.2029 16.389 13.7615 15.9475 13.7615 15.4028V10.9596C13.7615 10.4149 14.2029 9.97343 14.7476 9.97343H20.7154C21.0107 9.97343 21.2501 9.73401 21.2501 9.43877C21.2501 9.14353 21.0107 8.90411 20.7154 8.90411L14.7476 8.90411C13.6124 8.90411 12.6921 9.82436 12.6921 10.9596V15.4028C12.6921 16.538 13.6124 17.4583 14.7476 17.4583H25.0718C26.207 17.4583 27.1273 16.538 27.1273 15.4028V10.9596C27.1272 9.82436 26.2069 8.90411 25.0717 8.90411Z" fill="#303F9F"/>
</g>
<defs>
<clipPath id="clip0">
<rect width="36" height="36" fill="white"/>
</clipPath>
</defs>
</svg>
