<svg version="1.1" xmlns="http://www.w3.org/2000/svg" xmlns:xlink="http://www.w3.org/1999/xlink" width="400" height="400" viewBox="0, 0, 400,400">
    <g id="svgg">
        <path id="path0" d="M84.800 158.600 C 84.800 236.067,84.934 275.200,85.200 275.200 C 85.420 275.200,85.600 275.920,85.600 276.800 C 85.600 277.680,85.780 278.400,86.000 278.400 C 86.220 278.400,86.400 278.760,86.400 279.200 C 86.400 279.640,86.580 280.000,86.800 280.000 C 87.020 280.000,87.200 280.416,87.200 280.925 C 87.200 281.433,87.560 282.236,88.000 282.708 C 88.440 283.180,88.800 283.804,88.800 284.095 C 88.800 284.386,89.160 284.883,89.600 285.200 C 90.040 285.517,90.400 285.959,90.400 286.182 C 90.400 286.801,94.682 290.681,96.019 291.272 C 96.668 291.560,97.200 291.931,97.200 292.098 C 97.200 292.264,97.560 292.400,98.000 292.400 C 98.440 292.400,98.800 292.580,98.800 292.800 C 98.800 293.020,99.160 293.200,99.600 293.200 C 100.040 293.200,100.400 293.380,100.400 293.600 C 100.400 293.820,100.940 294.000,101.600 294.000 C 102.260 294.000,102.800 294.180,102.800 294.400 C 102.800 294.620,103.689 294.800,104.776 294.800 C 105.863 294.800,106.864 294.980,107.000 295.200 C 107.136 295.420,108.396 295.600,109.800 295.600 C 111.204 295.600,112.464 295.420,112.600 295.200 C 112.736 294.980,113.737 294.800,114.824 294.800 C 115.911 294.800,116.800 294.620,116.800 294.400 C 116.800 294.180,117.239 294.000,117.776 294.000 C 118.313 294.000,118.864 293.820,119.000 293.600 C 119.136 293.380,119.597 293.200,120.024 293.200 C 120.451 293.200,120.800 293.020,120.800 292.800 C 120.800 292.580,121.160 292.400,121.600 292.400 C 122.040 292.400,122.400 292.220,122.400 292.000 C 122.400 291.780,122.625 291.597,122.900 291.594 C 124.119 291.578,130.800 285.010,130.800 283.826 C 130.800 283.519,130.935 283.207,131.100 283.133 C 131.532 282.941,133.200 279.628,133.200 278.962 C 133.200 278.653,133.380 278.400,133.600 278.400 C 133.820 278.400,134.000 277.680,134.000 276.800 C 134.000 275.920,134.180 275.200,134.400 275.200 C 134.666 275.200,134.800 239.085,134.800 167.654 L 134.800 60.107 132.459 59.254 C 131.171 58.784,129.832 58.400,129.483 58.400 C 129.133 58.400,128.736 58.220,128.600 58.000 C 128.464 57.780,128.003 57.600,127.576 57.600 C 127.149 57.600,126.800 57.420,126.800 57.200 C 126.800 56.980,126.260 56.800,125.600 56.800 C 124.940 56.800,124.400 56.620,124.400 56.400 C 124.400 56.180,124.040 56.000,123.600 56.000 C 123.160 56.000,122.800 55.820,122.800 55.600 C 122.800 55.380,122.350 55.200,121.800 55.200 C 121.250 55.200,120.800 55.020,120.800 54.800 C 120.800 54.580,120.350 54.400,119.800 54.400 C 119.250 54.400,118.800 54.220,118.800 54.000 C 118.800 53.780,118.350 53.600,117.800 53.600 C 117.250 53.600,116.800 53.420,116.800 53.200 C 116.800 52.980,116.361 52.800,115.824 52.800 C 115.287 52.800,114.736 52.620,114.600 52.400 C 114.464 52.180,114.003 52.000,113.576 52.000 C 113.149 52.000,112.800 51.820,112.800 51.600 C 112.800 51.380,112.260 51.200,111.600 51.200 C 110.940 51.200,110.400 51.020,110.400 50.800 C 110.400 50.580,110.051 50.400,109.624 50.400 C 109.197 50.400,108.736 50.220,108.600 50.000 C 108.464 49.780,107.913 49.600,107.376 49.600 C 106.839 49.600,106.400 49.420,106.400 49.200 C 106.400 48.980,105.950 48.800,105.400 48.800 C 104.850 48.800,104.400 48.620,104.400 48.400 C 104.400 48.180,104.051 48.000,103.624 48.000 C 103.197 48.000,102.736 47.820,102.600 47.600 C 102.464 47.380,101.913 47.200,101.376 47.200 C 100.839 47.200,100.400 47.059,100.400 46.887 C 100.400 46.715,99.545 46.325,98.500 46.020 C 97.455 45.715,96.330 45.337,96.000 45.179 C 92.600 43.558,87.893 42.000,86.396 42.000 L 84.800 42.000 84.800 158.600 M0.495 54.733 C -0.244 55.202,-0.040 266.120,0.700 266.860 C 0.975 267.135,1.200 267.774,1.200 268.280 C 1.200 268.786,1.380 269.200,1.600 269.200 C 1.820 269.200,2.000 269.560,2.000 270.000 C 2.000 270.440,2.180 270.800,2.400 270.800 C 2.620 270.800,2.800 271.068,2.800 271.395 C 2.800 272.103,3.441 272.914,6.478 276.049 C 7.731 277.342,8.946 278.400,9.178 278.400 C 9.410 278.400,9.600 278.580,9.600 278.800 C 9.600 279.020,9.855 279.200,10.167 279.200 C 10.478 279.200,10.793 279.335,10.867 279.500 C 11.077 279.973,14.402 281.600,15.158 281.600 C 15.533 281.600,16.041 281.801,16.286 282.046 C 16.906 282.666,27.884 282.676,28.503 282.057 C 28.754 281.806,29.374 281.600,29.880 281.600 C 30.386 281.600,30.800 281.420,30.800 281.200 C 30.800 280.980,31.250 280.800,31.800 280.800 C 32.350 280.800,32.800 280.620,32.800 280.400 C 32.800 280.180,33.070 280.000,33.400 280.000 C 33.730 280.000,34.000 279.820,34.000 279.600 C 34.000 279.380,34.267 279.200,34.593 279.200 C 35.770 279.200,41.578 273.309,41.594 272.100 C 41.597 271.825,41.780 271.600,42.000 271.600 C 42.220 271.600,42.400 271.240,42.400 270.800 C 42.400 270.360,42.580 270.000,42.800 270.000 C 43.020 270.000,43.200 269.651,43.200 269.224 C 43.200 268.797,43.380 268.336,43.600 268.200 C 43.820 268.064,44.000 267.333,44.000 266.576 C 44.000 265.819,44.180 265.200,44.400 265.200 C 45.027 265.200,44.947 71.907,44.320 71.280 C 44.056 71.016,43.516 70.800,43.120 70.800 C 42.724 70.800,42.400 70.620,42.400 70.400 C 42.400 70.180,41.950 70.000,41.400 70.000 C 40.850 70.000,40.400 69.820,40.400 69.600 C 40.400 69.380,39.950 69.200,39.400 69.200 C 38.850 69.200,38.400 69.020,38.400 68.800 C 38.400 68.580,38.038 68.400,37.595 68.400 C 37.152 68.400,36.477 68.241,36.095 68.047 C 35.713 67.852,34.860 67.471,34.200 67.200 C 33.540 66.929,32.687 66.548,32.305 66.353 C 31.923 66.159,31.248 66.000,30.805 66.000 C 30.362 66.000,30.000 65.820,30.000 65.600 C 30.000 65.380,29.651 65.200,29.224 65.200 C 28.797 65.200,28.336 65.020,28.200 64.800 C 28.064 64.580,27.513 64.400,26.976 64.400 C 26.439 64.400,26.000 64.220,26.000 64.000 C 26.000 63.780,25.638 63.600,25.195 63.600 C 24.752 63.600,24.077 63.441,23.695 63.247 C 22.908 62.847,20.994 62.037,19.800 61.600 C 19.360 61.439,18.550 61.117,18.000 60.886 C 15.124 59.673,11.277 58.400,10.492 58.400 C 10.001 58.400,9.600 58.220,9.600 58.000 C 9.600 57.780,9.240 57.600,8.800 57.600 C 8.360 57.600,8.000 57.420,8.000 57.200 C 8.000 56.980,7.638 56.800,7.195 56.800 C 6.752 56.800,6.032 56.620,5.595 56.400 C 5.158 56.180,4.442 55.820,4.005 55.600 C 3.568 55.380,2.848 55.200,2.405 55.200 C 1.962 55.200,1.600 55.020,1.600 54.800 C 1.600 54.321,1.184 54.296,0.495 54.733 " stroke="none" fill="#2c3cb4" fill-rule="evenodd"></path>
        <path id="path1" d="M184.000 58.519 C 184.000 82.187,184.108 88.788,184.500 89.099 C 185.003 89.498,186.318 89.719,192.200 90.395 C 193.960 90.597,196.930 90.950,198.800 91.178 C 200.670 91.407,203.235 91.595,204.500 91.597 C 205.765 91.599,206.800 91.780,206.800 92.000 C 206.800 92.233,208.125 92.400,209.976 92.400 C 211.723 92.400,213.264 92.580,213.400 92.800 C 213.536 93.020,214.886 93.200,216.400 93.200 C 217.914 93.200,219.264 93.380,219.400 93.600 C 219.536 93.820,220.987 94.000,222.624 94.000 C 224.341 94.000,225.600 94.169,225.600 94.400 C 225.600 94.633,226.933 94.800,228.800 94.800 C 230.667 94.800,232.000 94.967,232.000 95.200 C 232.000 95.431,233.259 95.600,234.976 95.600 C 236.613 95.600,238.064 95.780,238.200 96.000 C 238.336 96.220,239.787 96.400,241.424 96.400 C 243.141 96.400,244.400 96.569,244.400 96.800 C 244.400 97.033,245.725 97.200,247.576 97.200 C 249.323 97.200,250.864 97.380,251.000 97.600 C 251.136 97.820,252.576 98.000,254.200 98.000 C 255.824 98.000,257.264 98.180,257.400 98.400 C 257.536 98.620,258.897 98.800,260.424 98.800 C 261.951 98.800,263.200 98.966,263.200 99.170 C 263.200 99.373,264.595 99.641,266.300 99.765 C 268.005 99.889,270.840 100.096,272.600 100.225 C 274.360 100.354,275.971 100.627,276.180 100.830 C 276.389 101.034,277.748 101.200,279.200 101.200 C 280.652 101.200,282.011 101.366,282.220 101.569 C 282.579 101.917,284.100 102.094,291.200 102.611 C 292.850 102.731,294.560 102.995,295.000 103.199 C 295.440 103.402,296.970 103.658,298.400 103.766 C 299.830 103.874,302.530 104.155,304.400 104.391 C 306.270 104.627,309.240 104.991,311.000 105.201 C 315.997 105.796,320.316 106.325,323.800 106.769 C 330.456 107.618,334.273 107.986,336.476 107.993 C 337.728 107.997,338.864 108.180,339.000 108.400 C 339.136 108.620,340.587 108.800,342.224 108.800 C 343.941 108.800,345.200 108.969,345.200 109.200 C 345.200 109.431,346.467 109.600,348.200 109.600 C 349.933 109.600,351.200 109.769,351.200 110.000 C 351.200 110.220,351.740 110.400,352.400 110.400 C 353.060 110.400,353.600 110.580,353.600 110.800 C 353.600 111.020,353.960 111.200,354.400 111.200 C 354.840 111.200,355.200 111.380,355.200 111.600 C 355.200 111.820,355.484 112.000,355.831 112.000 C 356.649 112.000,359.476 114.982,360.738 117.175 C 362.416 120.092,362.800 120.881,362.800 121.412 C 362.800 121.735,362.941 122.000,363.113 122.000 C 363.285 122.000,363.657 122.855,363.939 123.900 C 364.222 124.945,364.621 126.113,364.827 126.495 C 365.032 126.877,365.200 127.721,365.200 128.371 C 365.200 129.021,365.380 129.664,365.600 129.800 C 365.820 129.936,366.000 131.016,366.000 132.200 C 366.000 133.384,366.180 134.464,366.400 134.600 C 366.639 134.747,366.800 137.330,366.800 141.000 C 366.800 144.670,366.639 147.253,366.400 147.400 C 366.180 147.536,366.000 148.616,366.000 149.800 C 366.000 150.984,365.820 152.064,365.600 152.200 C 365.380 152.336,365.200 153.056,365.200 153.800 C 365.200 154.544,365.020 155.264,364.800 155.400 C 364.580 155.536,364.400 156.267,364.400 157.024 C 364.400 157.781,364.220 158.400,364.000 158.400 C 363.780 158.400,363.600 158.742,363.600 159.159 C 363.600 160.563,358.422 169.200,357.581 169.200 C 357.437 169.200,356.754 169.740,356.063 170.400 C 355.372 171.060,354.536 171.600,354.204 171.600 C 353.872 171.600,353.600 171.780,353.600 172.000 C 353.600 172.220,353.240 172.400,352.800 172.400 C 352.360 172.400,352.000 172.580,352.000 172.800 C 352.000 173.020,351.550 173.200,351.000 173.200 C 350.450 173.200,350.000 173.354,350.000 173.543 C 350.000 173.891,342.173 174.606,339.600 174.494 C 338.830 174.461,325.780 174.319,310.600 174.179 C 295.044 174.036,282.834 173.767,282.620 173.562 C 282.405 173.357,274.596 173.200,264.600 173.200 C 253.929 173.200,246.809 173.049,246.578 172.818 C 246.352 172.592,238.190 172.345,226.598 172.213 C 215.819 172.090,202.009 171.896,195.909 171.782 L 184.818 171.575 184.611 187.488 C 184.498 196.239,184.309 209.205,184.191 216.300 L 183.978 229.200 190.109 229.200 C 193.517 229.200,196.412 229.028,196.626 228.814 C 196.992 228.448,200.530 228.334,228.398 227.787 C 234.770 227.662,239.965 227.395,240.178 227.182 C 240.400 226.960,244.761 226.800,250.600 226.800 C 256.541 226.800,260.798 226.642,261.027 226.413 C 261.248 226.192,266.135 225.942,272.407 225.831 C 285.077 225.606,303.676 225.154,331.000 224.405 C 353.340 223.793,352.425 223.691,355.986 227.186 C 358.369 229.526,362.800 237.394,362.800 239.289 C 362.800 239.680,362.980 240.000,363.200 240.000 C 363.420 240.000,363.600 240.540,363.600 241.200 C 363.600 241.860,363.760 242.400,363.956 242.400 C 364.293 242.400,364.411 242.851,365.033 246.504 C 365.173 247.331,365.449 248.106,365.644 248.227 C 365.840 248.348,366.000 249.416,366.000 250.600 C 366.000 251.784,366.180 252.864,366.400 253.000 C 366.620 253.136,366.800 253.946,366.800 254.800 C 366.800 255.654,366.620 256.464,366.400 256.600 C 366.180 256.736,366.000 258.266,366.000 260.000 C 366.000 261.734,365.820 263.264,365.600 263.400 C 365.380 263.536,365.200 264.346,365.200 265.200 C 365.200 266.054,365.020 266.864,364.800 267.000 C 364.580 267.136,364.400 267.867,364.400 268.624 C 364.400 269.381,364.220 270.000,364.000 270.000 C 363.780 270.000,363.600 270.540,363.600 271.200 C 363.600 271.860,363.420 272.400,363.200 272.400 C 362.980 272.400,362.800 272.839,362.800 273.376 C 362.800 273.913,362.620 274.464,362.400 274.600 C 362.180 274.736,362.000 275.197,362.000 275.624 C 362.000 276.051,361.820 276.400,361.600 276.400 C 361.380 276.400,361.200 276.584,361.200 276.809 C 361.200 277.583,358.515 281.422,356.904 282.950 C 354.823 284.925,354.098 285.448,352.200 286.344 C 351.100 286.863,349.887 287.448,349.505 287.644 C 349.123 287.840,348.189 288.000,347.429 288.000 C 346.669 288.000,345.936 288.180,345.800 288.400 C 345.664 288.620,344.404 288.800,343.000 288.800 C 341.596 288.800,340.336 288.980,340.200 289.200 C 340.064 289.420,338.613 289.600,336.976 289.600 C 335.259 289.600,334.000 289.769,334.000 290.000 C 334.000 290.233,332.675 290.400,330.824 290.400 C 329.077 290.400,327.536 290.580,327.400 290.800 C 327.264 291.020,326.051 291.200,324.705 291.200 C 323.358 291.200,321.704 291.370,321.028 291.577 C 320.353 291.784,317.100 292.164,313.800 292.422 C 308.083 292.868,306.063 293.071,297.800 294.032 C 286.769 295.316,280.154 296.008,276.800 296.229 C 275.150 296.338,273.440 296.595,273.000 296.801 C 272.560 297.006,270.760 297.264,269.000 297.374 C 267.240 297.484,264.090 297.766,262.000 298.000 C 259.910 298.234,256.760 298.523,255.000 298.642 C 253.240 298.761,251.629 299.025,251.420 299.229 C 251.211 299.433,249.467 299.600,247.544 299.600 C 245.621 299.600,243.936 299.780,243.800 300.000 C 243.664 300.220,241.954 300.400,240.000 300.400 C 238.046 300.400,236.336 300.580,236.200 300.800 C 236.064 301.020,234.523 301.200,232.776 301.200 C 230.925 301.200,229.600 301.367,229.600 301.600 C 229.600 301.838,228.075 302.000,225.824 302.000 C 223.737 302.000,221.937 302.179,221.800 302.400 C 221.664 302.620,219.954 302.800,218.000 302.800 C 216.046 302.800,214.336 302.980,214.200 303.200 C 214.064 303.420,212.534 303.600,210.800 303.600 C 209.066 303.600,207.536 303.780,207.400 304.000 C 207.264 304.221,205.470 304.400,203.400 304.400 C 201.330 304.400,199.536 304.579,199.400 304.800 C 199.264 305.020,197.554 305.200,195.600 305.200 C 193.646 305.200,191.936 305.380,191.800 305.600 C 191.664 305.820,190.033 306.000,188.176 306.000 C 186.192 306.000,184.800 306.165,184.800 306.400 C 184.800 306.635,183.358 306.805,181.300 306.813 C 176.892 306.829,176.611 307.039,176.034 310.758 C 175.783 312.372,175.403 314.020,175.189 314.420 C 174.975 314.820,174.800 315.519,174.800 315.974 C 174.800 316.428,174.620 316.800,174.400 316.800 C 174.180 316.800,174.000 317.160,174.000 317.600 C 174.000 318.040,173.820 318.400,173.600 318.400 C 173.380 318.400,173.200 318.760,173.200 319.200 C 173.200 319.640,173.020 320.000,172.800 320.000 C 172.580 320.000,172.400 320.236,172.400 320.525 C 172.400 320.813,172.040 321.436,171.600 321.908 C 171.160 322.380,170.800 322.932,170.800 323.135 C 170.800 323.338,170.080 324.245,169.200 325.152 C 168.320 326.059,167.600 326.899,167.600 327.020 C 167.600 327.140,166.349 328.445,164.821 329.919 C 160.410 334.173,158.811 335.600,158.453 335.600 C 158.269 335.600,157.554 336.140,156.863 336.800 C 156.172 337.460,155.375 338.000,155.092 338.000 C 154.809 338.000,154.317 338.360,154.000 338.800 C 153.683 339.240,153.103 339.600,152.712 339.600 C 152.320 339.600,152.000 339.759,152.000 339.953 C 152.000 340.148,151.685 340.407,151.300 340.529 C 150.915 340.651,150.150 341.029,149.600 341.368 C 148.160 342.258,140.897 345.600,140.405 345.600 C 140.176 345.600,139.587 345.808,139.095 346.062 C 137.174 347.056,136.784 347.200,136.029 347.200 C 135.599 347.200,135.136 347.380,135.000 347.600 C 134.864 347.820,134.324 348.000,133.800 348.000 C 133.276 348.000,132.736 348.180,132.600 348.400 C 132.464 348.620,131.834 348.800,131.200 348.800 C 130.566 348.800,129.936 348.980,129.800 349.200 C 129.664 349.420,128.843 349.600,127.976 349.600 C 127.109 349.600,126.400 349.780,126.400 350.000 C 126.400 350.228,125.208 350.400,123.624 350.400 C 122.097 350.400,120.736 350.580,120.600 350.800 C 120.457 351.032,118.270 351.200,115.400 351.200 C 112.530 351.200,110.343 351.032,110.200 350.800 C 110.064 350.580,108.894 350.400,107.600 350.400 C 106.306 350.400,105.136 350.220,105.000 350.000 C 104.864 349.780,104.133 349.600,103.376 349.600 C 102.619 349.600,102.000 349.420,102.000 349.200 C 102.000 348.980,101.471 348.800,100.824 348.800 C 100.177 348.800,99.536 348.620,99.400 348.400 C 99.264 348.180,98.713 348.000,98.176 348.000 C 97.639 348.000,97.200 347.820,97.200 347.600 C 97.200 347.380,96.928 347.200,96.595 347.200 C 96.262 347.200,95.677 347.040,95.295 346.844 C 94.913 346.648,93.700 346.065,92.600 345.548 C 90.005 344.328,85.838 341.899,85.667 341.506 C 85.593 341.338,85.278 341.200,84.967 341.200 C 84.655 341.200,84.400 341.020,84.400 340.800 C 84.400 340.580,84.218 340.400,83.996 340.400 C 83.774 340.400,83.028 339.860,82.337 339.200 C 81.646 338.540,80.920 338.000,80.724 338.000 C 80.527 338.000,78.978 336.587,77.283 334.860 C 73.863 331.376,73.391 330.832,70.800 327.391 C 69.810 326.076,68.787 324.774,68.526 324.498 C 68.266 324.221,67.938 323.636,67.799 323.198 C 67.660 322.759,67.378 322.400,67.173 322.400 C 66.968 322.400,66.800 322.040,66.800 321.600 C 66.800 321.160,66.664 320.800,66.498 320.800 C 66.331 320.800,65.956 320.260,65.664 319.600 C 64.829 317.714,60.865 319.052,60.806 321.239 C 60.801 321.448,60.283 322.133,58.807 323.883 C 58.583 324.149,58.400 324.511,58.400 324.688 C 58.400 325.212,50.295 332.951,49.100 333.568 C 48.495 333.880,48.000 334.285,48.000 334.468 C 48.000 334.650,47.640 334.800,47.200 334.800 C 46.760 334.800,46.400 334.980,46.400 335.200 C 46.400 335.420,46.040 335.600,45.600 335.600 C 45.160 335.600,44.800 335.780,44.800 336.000 C 44.800 336.220,44.350 336.400,43.800 336.400 C 43.250 336.400,42.800 336.580,42.800 336.800 C 42.800 337.020,42.260 337.200,41.600 337.200 C 40.940 337.200,40.400 337.380,40.400 337.600 C 40.400 337.820,39.871 338.000,39.224 338.000 C 38.577 338.000,37.936 338.180,37.800 338.400 C 37.664 338.620,36.764 338.800,35.800 338.800 C 34.836 338.800,33.936 338.980,33.800 339.200 C 33.664 339.420,32.123 339.600,30.376 339.600 C 28.525 339.600,27.200 339.767,27.200 340.000 C 27.200 340.220,26.300 340.400,25.200 340.400 C 23.333 340.400,23.200 340.467,23.200 341.400 C 23.200 342.300,23.360 342.400,24.800 342.400 C 25.680 342.400,26.400 342.580,26.400 342.800 C 26.400 343.020,27.289 343.200,28.376 343.200 C 29.463 343.200,30.464 343.380,30.600 343.600 C 30.736 343.820,31.726 344.000,32.800 344.000 C 33.874 344.000,34.864 344.180,35.000 344.400 C 35.136 344.620,36.036 344.800,37.000 344.800 C 37.964 344.800,38.864 344.980,39.000 345.200 C 39.136 345.420,40.126 345.600,41.200 345.600 C 42.274 345.600,43.264 345.780,43.400 346.000 C 43.536 346.220,44.526 346.400,45.600 346.400 C 46.674 346.400,47.664 346.580,47.800 346.800 C 47.936 347.020,48.847 347.200,49.824 347.200 C 50.801 347.200,51.600 347.380,51.600 347.600 C 51.600 347.820,52.489 348.000,53.576 348.000 C 54.663 348.000,55.664 348.180,55.800 348.400 C 55.936 348.620,57.016 348.800,58.200 348.800 C 59.384 348.800,60.464 348.980,60.600 349.200 C 60.736 349.420,61.546 349.600,62.400 349.600 C 63.254 349.600,64.064 349.780,64.200 350.000 C 64.336 350.220,65.326 350.400,66.400 350.400 C 67.474 350.400,68.464 350.580,68.600 350.800 C 68.736 351.020,69.827 351.200,71.024 351.200 C 72.221 351.200,73.200 351.380,73.200 351.600 C 73.200 351.820,74.100 352.000,75.200 352.000 C 76.300 352.000,77.200 352.180,77.200 352.400 C 77.200 352.620,78.089 352.800,79.176 352.800 C 80.263 352.800,81.264 352.980,81.400 353.200 C 81.536 353.420,82.501 353.600,83.544 353.600 C 84.587 353.600,85.611 353.763,85.820 353.961 C 86.029 354.160,87.010 354.419,88.000 354.538 C 88.990 354.656,90.790 354.943,92.000 355.175 C 93.210 355.407,95.190 355.770,96.400 355.982 C 97.610 356.194,99.680 356.566,101.000 356.808 C 102.320 357.050,104.960 357.463,106.867 357.724 C 108.774 357.986,110.469 358.335,110.634 358.500 C 110.799 358.665,111.793 358.800,112.843 358.800 C 113.893 358.800,114.864 358.980,115.000 359.200 C 115.136 359.420,116.126 359.600,117.200 359.600 C 118.274 359.600,119.264 359.780,119.400 360.000 C 119.536 360.220,120.526 360.400,121.600 360.400 C 122.674 360.400,123.664 360.580,123.800 360.800 C 123.936 361.020,124.937 361.200,126.024 361.200 C 127.111 361.200,128.000 361.380,128.000 361.600 C 128.000 361.820,128.889 362.000,129.976 362.000 C 131.063 362.000,132.064 362.180,132.200 362.400 C 132.336 362.620,133.236 362.800,134.200 362.800 C 135.164 362.800,136.064 362.980,136.200 363.200 C 136.336 363.420,137.326 363.600,138.400 363.600 C 139.474 363.600,140.464 363.780,140.600 364.000 C 140.736 364.220,141.726 364.400,142.800 364.400 C 143.874 364.400,144.864 364.580,145.000 364.800 C 145.136 365.020,146.011 365.200,146.944 365.200 C 147.877 365.200,148.811 365.363,149.020 365.561 C 149.383 365.906,150.877 366.157,155.500 366.650 C 156.655 366.773,157.600 367.037,157.600 367.237 C 157.600 367.437,158.500 367.600,159.600 367.600 C 160.700 367.600,161.600 367.780,161.600 368.000 C 161.600 368.220,162.489 368.400,163.576 368.400 C 164.663 368.400,165.664 368.580,165.800 368.800 C 165.936 369.020,166.901 369.200,167.944 369.200 C 168.987 369.200,170.011 369.363,170.220 369.561 C 170.429 369.760,171.455 370.030,172.500 370.161 C 173.545 370.293,175.255 370.507,176.300 370.639 C 177.345 370.770,178.371 371.040,178.580 371.239 C 179.102 371.735,187.091 371.700,187.400 371.200 C 187.536 370.980,188.436 370.800,189.400 370.800 C 190.364 370.800,191.264 370.620,191.400 370.400 C 191.536 370.180,192.411 370.000,193.344 370.000 C 194.277 370.000,195.211 369.837,195.420 369.639 C 195.629 369.440,196.610 369.176,197.600 369.051 C 201.866 368.516,203.022 368.297,203.380 367.959 C 203.589 367.762,204.534 367.600,205.480 367.600 C 206.426 367.600,207.200 367.420,207.200 367.200 C 207.200 366.980,208.089 366.800,209.176 366.800 C 210.263 366.800,211.264 366.620,211.400 366.400 C 211.536 366.180,212.436 366.000,213.400 366.000 C 214.364 366.000,215.264 365.820,215.400 365.600 C 215.536 365.380,216.346 365.200,217.200 365.200 C 218.054 365.200,218.864 365.020,219.000 364.800 C 219.136 364.580,220.036 364.400,221.000 364.400 C 221.964 364.400,222.864 364.220,223.000 364.000 C 223.136 363.780,224.126 363.600,225.200 363.600 C 226.274 363.600,227.264 363.420,227.400 363.200 C 227.536 362.980,228.357 362.800,229.224 362.800 C 230.091 362.800,230.800 362.620,230.800 362.400 C 230.800 362.180,231.790 362.000,233.000 362.000 C 234.210 362.000,235.200 361.820,235.200 361.600 C 235.200 361.380,235.999 361.200,236.976 361.200 C 237.953 361.200,238.864 361.020,239.000 360.800 C 239.136 360.580,240.036 360.400,241.000 360.400 C 241.964 360.400,242.864 360.220,243.000 360.000 C 243.136 359.780,244.036 359.600,245.000 359.600 C 245.964 359.600,246.864 359.420,247.000 359.200 C 247.136 358.980,247.959 358.800,248.829 358.800 C 249.699 358.800,250.723 358.638,251.105 358.441 C 251.487 358.244,253.240 357.879,255.000 357.632 C 256.760 357.384,259.100 357.006,260.200 356.791 C 265.242 355.806,266.708 355.539,268.200 355.336 C 269.080 355.216,269.971 354.956,270.180 354.759 C 270.389 354.562,271.298 354.400,272.200 354.400 C 273.102 354.400,274.011 354.237,274.220 354.039 C 274.429 353.840,275.410 353.581,276.400 353.462 C 277.390 353.344,279.190 353.047,280.400 352.803 C 281.610 352.559,283.320 352.260,284.200 352.139 C 285.080 352.017,285.971 351.756,286.180 351.559 C 286.389 351.362,287.388 351.200,288.400 351.200 C 289.412 351.200,290.411 351.038,290.620 350.841 C 290.829 350.644,291.765 350.374,292.700 350.241 C 293.635 350.108,295.165 349.892,296.100 349.759 C 297.035 349.626,297.971 349.356,298.180 349.159 C 298.389 348.962,299.323 348.800,300.256 348.800 C 301.189 348.800,302.064 348.620,302.200 348.400 C 302.336 348.180,303.236 348.000,304.200 348.000 C 305.164 348.000,306.064 347.820,306.200 347.600 C 306.336 347.380,307.146 347.200,308.000 347.200 C 308.854 347.200,309.664 347.020,309.800 346.800 C 309.936 346.580,310.926 346.400,312.000 346.400 C 313.074 346.400,314.064 346.220,314.200 346.000 C 314.336 345.780,315.236 345.600,316.200 345.600 C 317.164 345.600,318.064 345.420,318.200 345.200 C 318.336 344.980,319.146 344.800,320.000 344.800 C 320.854 344.800,321.664 344.620,321.800 344.400 C 321.936 344.180,322.937 344.000,324.024 344.000 C 325.111 344.000,326.000 343.820,326.000 343.600 C 326.000 343.380,326.900 343.200,328.000 343.200 C 329.100 343.200,330.000 343.020,330.000 342.800 C 330.000 342.580,330.722 342.400,331.605 342.400 C 332.488 342.400,333.523 342.238,333.905 342.041 C 334.287 341.844,336.130 341.465,338.000 341.199 C 341.368 340.720,343.424 340.362,347.100 339.613 C 351.400 338.737,353.483 338.348,355.000 338.139 C 355.880 338.017,356.771 337.756,356.980 337.559 C 357.189 337.362,357.853 337.200,358.456 337.200 C 359.059 337.200,359.664 337.020,359.800 336.800 C 359.936 336.580,360.487 336.400,361.024 336.400 C 361.561 336.400,362.000 336.220,362.000 336.000 C 362.000 335.780,362.253 335.600,362.562 335.600 C 363.228 335.600,366.541 333.932,366.733 333.500 C 366.807 333.335,367.212 333.200,367.633 333.200 C 368.055 333.200,368.400 333.059,368.400 332.886 C 368.400 332.714,368.945 332.251,369.611 331.857 C 370.277 331.464,371.259 330.705,371.793 330.171 C 372.327 329.637,372.871 329.200,373.001 329.200 C 373.518 329.200,380.035 322.213,381.585 319.996 C 382.122 319.228,382.660 318.510,382.781 318.400 C 382.902 318.290,383.256 317.705,383.568 317.100 C 383.880 316.495,384.285 316.000,384.468 316.000 C 384.650 316.000,384.800 315.640,384.800 315.200 C 384.800 314.760,384.945 314.400,385.121 314.400 C 385.298 314.400,385.883 313.503,386.421 312.406 C 386.960 311.310,387.535 310.410,387.700 310.406 C 387.865 310.403,388.000 310.040,388.000 309.600 C 388.000 309.160,388.180 308.800,388.400 308.800 C 388.620 308.800,388.800 308.528,388.800 308.195 C 388.800 307.862,388.978 307.277,389.195 306.895 C 390.065 305.362,391.600 301.456,391.600 300.774 C 391.600 300.374,391.780 299.936,392.000 299.800 C 392.220 299.664,392.400 299.203,392.400 298.776 C 392.400 298.349,392.580 298.000,392.800 298.000 C 393.020 298.000,393.200 297.460,393.200 296.800 C 393.200 296.140,393.380 295.600,393.600 295.600 C 393.820 295.600,394.000 295.060,394.000 294.400 C 394.000 293.740,394.180 293.200,394.400 293.200 C 394.620 293.200,394.800 292.480,394.800 291.600 C 394.800 290.720,394.980 290.000,395.200 290.000 C 395.420 290.000,395.600 289.370,395.600 288.600 C 395.600 287.830,395.780 287.200,396.000 287.200 C 396.220 287.200,396.400 286.480,396.400 285.600 C 396.400 284.720,396.580 284.000,396.800 284.000 C 397.020 284.000,397.200 283.291,397.200 282.424 C 397.200 281.557,397.380 280.736,397.600 280.600 C 397.820 280.464,398.000 279.294,398.000 278.000 C 398.000 276.706,398.180 275.536,398.400 275.400 C 398.620 275.264,398.800 274.119,398.800 272.856 C 398.800 271.553,399.016 270.344,399.300 270.060 C 399.683 269.677,399.800 265.817,399.800 253.513 C 399.800 241.032,399.689 237.430,399.300 237.300 C 398.976 237.192,398.800 236.309,398.800 234.790 C 398.800 233.502,398.620 232.336,398.400 232.200 C 398.180 232.064,398.000 231.063,398.000 229.976 C 398.000 228.889,397.820 228.000,397.600 228.000 C 397.380 228.000,397.200 227.280,397.200 226.400 C 397.200 225.520,397.020 224.800,396.800 224.800 C 396.580 224.800,396.400 224.260,396.400 223.600 C 396.400 222.940,396.220 222.400,396.000 222.400 C 395.780 222.400,395.600 221.858,395.600 221.195 C 395.600 220.532,395.420 219.632,395.200 219.195 C 394.980 218.758,394.620 218.042,394.400 217.605 C 394.180 217.168,394.000 216.448,394.000 216.005 C 394.000 215.562,393.820 215.200,393.600 215.200 C 393.380 215.200,393.200 214.840,393.200 214.400 C 393.200 213.960,393.020 213.600,392.800 213.600 C 392.580 213.600,392.400 213.347,392.400 213.037 C 392.400 212.350,389.593 207.053,389.131 206.867 C 388.949 206.793,388.800 206.514,388.800 206.245 C 388.800 205.976,388.215 205.097,387.500 204.290 C 384.801 201.246,384.088 199.573,385.160 198.800 C 385.662 198.438,388.800 192.092,388.800 191.439 C 388.800 191.088,388.980 190.800,389.200 190.800 C 389.420 190.800,389.600 190.470,389.600 190.067 C 389.600 189.663,389.728 189.205,389.885 189.048 C 390.381 188.552,391.599 185.037,391.600 184.100 C 391.600 183.605,391.780 183.200,392.000 183.200 C 392.220 183.200,392.400 182.660,392.400 182.000 C 392.400 181.340,392.580 180.800,392.800 180.800 C 393.020 180.800,393.200 180.080,393.200 179.200 C 393.200 178.320,393.380 177.600,393.600 177.600 C 393.820 177.600,394.000 176.981,394.000 176.224 C 394.000 175.467,394.180 174.736,394.400 174.600 C 394.620 174.464,394.800 173.643,394.800 172.776 C 394.800 171.909,394.980 171.200,395.200 171.200 C 395.420 171.200,395.600 170.210,395.600 169.000 C 395.600 167.790,395.780 166.800,396.000 166.800 C 396.229 166.800,396.400 165.600,396.400 164.000 C 396.400 162.400,396.571 161.200,396.800 161.200 C 397.059 161.200,397.200 156.475,397.200 147.824 C 397.200 139.337,397.054 134.357,396.800 134.200 C 396.580 134.064,396.400 132.714,396.400 131.200 C 396.400 129.686,396.220 128.336,396.000 128.200 C 395.780 128.064,395.600 126.883,395.600 125.576 C 395.600 124.259,395.422 123.200,395.200 123.200 C 394.980 123.200,394.800 122.300,394.800 121.200 C 394.800 120.100,394.620 119.200,394.400 119.200 C 394.180 119.200,394.000 118.480,394.000 117.600 C 394.000 116.720,393.820 116.000,393.600 116.000 C 393.380 116.000,393.200 115.381,393.200 114.624 C 393.200 113.867,393.020 113.136,392.800 113.000 C 392.580 112.864,392.400 112.133,392.400 111.376 C 392.400 110.619,392.220 110.000,392.000 110.000 C 391.780 110.000,391.600 109.590,391.600 109.089 C 391.600 107.994,389.684 101.958,389.166 101.420 C 388.965 101.211,388.800 100.804,388.800 100.516 C 388.800 99.982,387.740 97.434,386.363 94.662 C 385.944 93.816,385.600 92.871,385.600 92.562 C 385.600 92.253,385.420 92.000,385.200 92.000 C 384.980 92.000,384.800 91.655,384.800 91.233 C 384.800 90.812,384.665 90.407,384.500 90.333 C 384.124 90.166,382.825 88.036,382.529 87.100 C 382.407 86.715,382.148 86.400,381.953 86.400 C 381.759 86.400,381.600 86.122,381.600 85.783 C 381.600 85.444,381.240 84.780,380.800 84.308 C 380.360 83.836,380.000 83.213,380.000 82.925 C 380.000 82.636,379.820 82.400,379.600 82.400 C 379.380 82.400,379.200 82.130,379.200 81.800 C 379.200 81.470,379.020 81.200,378.800 81.200 C 378.580 81.200,378.400 80.970,378.400 80.688 C 378.400 80.407,378.040 79.917,377.600 79.600 C 377.160 79.283,376.800 78.870,376.800 78.683 C 376.800 78.496,376.575 78.110,376.300 77.826 C 376.025 77.542,375.170 76.535,374.400 75.589 C 372.215 72.904,365.873 66.800,365.269 66.800 C 365.094 66.800,364.601 66.475,364.174 66.077 C 362.848 64.840,356.055 61.689,352.800 60.799 C 351.810 60.529,350.550 60.155,350.000 59.970 C 347.822 59.234,344.019 58.400,342.842 58.400 C 342.159 58.400,341.600 58.220,341.600 58.000 C 341.600 57.780,340.880 57.600,340.000 57.600 C 339.120 57.600,338.400 57.420,338.400 57.200 C 338.400 56.980,337.680 56.800,336.800 56.800 C 335.920 56.800,335.200 56.620,335.200 56.400 C 335.200 56.180,334.390 56.000,333.400 56.000 C 332.410 56.000,331.600 55.820,331.600 55.600 C 331.600 55.380,330.880 55.200,330.000 55.200 C 329.120 55.200,328.400 55.020,328.400 54.800 C 328.400 54.580,327.601 54.400,326.624 54.400 C 325.647 54.400,324.736 54.220,324.600 54.000 C 324.464 53.780,323.654 53.600,322.800 53.600 C 321.946 53.600,321.136 53.420,321.000 53.200 C 320.864 52.980,320.054 52.800,319.200 52.800 C 318.346 52.800,317.536 52.620,317.400 52.400 C 317.264 52.180,316.454 52.000,315.600 52.000 C 314.746 52.000,313.936 51.820,313.800 51.600 C 313.664 51.380,312.663 51.200,311.576 51.200 C 310.489 51.200,309.600 51.020,309.600 50.800 C 309.600 50.580,308.891 50.400,308.024 50.400 C 307.157 50.400,306.336 50.220,306.200 50.000 C 306.064 49.780,305.164 49.600,304.200 49.600 C 303.236 49.600,302.336 49.420,302.200 49.200 C 302.064 48.980,301.189 48.800,300.256 48.800 C 299.323 48.800,298.389 48.638,298.180 48.441 C 297.971 48.244,297.080 47.983,296.200 47.861 C 295.320 47.740,293.610 47.442,292.400 47.200 C 291.190 46.958,289.480 46.668,288.600 46.557 C 287.720 46.446,286.640 46.195,286.200 46.000 C 285.760 45.805,284.680 45.554,283.800 45.443 C 282.920 45.332,281.210 45.044,280.000 44.805 C 272.679 43.354,262.419 41.631,259.300 41.329 C 258.145 41.217,257.200 40.963,257.200 40.763 C 257.200 40.563,256.311 40.400,255.224 40.400 C 254.137 40.400,253.136 40.220,253.000 40.000 C 252.864 39.780,251.874 39.600,250.800 39.600 C 249.726 39.600,248.736 39.420,248.600 39.200 C 248.464 38.980,247.474 38.800,246.400 38.800 C 245.326 38.800,244.336 38.620,244.200 38.400 C 244.064 38.180,242.973 38.000,241.776 38.000 C 240.579 38.000,239.600 37.820,239.600 37.600 C 239.600 37.380,238.711 37.200,237.624 37.200 C 236.537 37.200,235.536 37.020,235.400 36.800 C 235.264 36.580,234.364 36.400,233.400 36.400 C 232.436 36.400,231.536 36.220,231.400 36.000 C 231.264 35.780,230.094 35.600,228.800 35.600 C 227.506 35.600,226.336 35.420,226.200 35.200 C 226.064 34.980,225.063 34.800,223.976 34.800 C 222.889 34.800,222.000 34.620,222.000 34.400 C 222.000 34.180,221.111 34.000,220.024 34.000 C 218.937 34.000,217.936 33.820,217.800 33.600 C 217.664 33.380,216.483 33.200,215.176 33.200 C 213.859 33.200,212.800 33.022,212.800 32.800 C 212.800 32.580,211.911 32.400,210.824 32.400 C 209.737 32.400,208.736 32.220,208.600 32.000 C 208.464 31.780,207.499 31.600,206.456 31.600 C 205.413 31.600,204.389 31.436,204.180 31.235 C 203.971 31.035,202.810 30.770,201.600 30.648 C 196.900 30.174,195.371 29.945,194.600 29.600 C 193.708 29.200,191.239 28.863,186.900 28.548 L 184.000 28.337 184.000 58.519 " stroke="none" fill="#fc943c" fill-rule="evenodd"></path>
    </g>
</svg>