<?xml version="1.0" standalone="no"?>
<!DOCTYPE svg PUBLIC "-//W3C//DTD SVG 20010904//EN"
 "http://www.w3.org/TR/2001/REC-SVG-20010904/DTD/svg10.dtd">
<svg version="1.0" xmlns="http://www.w3.org/2000/svg"
 width="1040.000000pt" height="1040.000000pt" viewBox="0 0 1040.000000 1040.000000"
 preserveAspectRatio="xMidYMid meet">
<metadata>
Created by potrace 1.14, written by Peter Selinger 2001-2017
</metadata>
<g transform="translate(0.000000,1040.000000) scale(0.100000,-0.100000)"
fill="#000000" stroke="none">
<path d="M4814 8874 c2 -421 6 -767 8 -769 3 -3 34 -7 69 -10 35 -3 75 -8 89
-11 14 -3 45 -8 70 -10 25 -2 63 -7 85 -10 59 -9 130 -18 230 -28 58 -7 88
-10 165 -21 19 -2 58 -7 85 -11 28 -3 59 -8 70 -9 11 -2 42 -6 69 -9 27 -4 53
-9 59 -13 6 -3 7 -1 3 5 -5 8 1 9 21 2 15 -5 53 -11 83 -15 84 -8 128 -14 215
-26 44 -6 96 -13 115 -15 43 -4 125 -14 165 -20 17 -2 55 -6 85 -9 30 -3 66
-7 80 -10 27 -5 80 -12 150 -20 25 -3 61 -7 80 -10 19 -3 53 -7 75 -9 22 -3
40 -5 40 -6 0 -1 20 -3 45 -5 25 -2 63 -7 85 -10 22 -2 65 -7 95 -11 30 -3 66
-7 80 -10 14 -3 52 -7 85 -10 33 -2 67 -7 75 -10 8 -3 41 -8 73 -10 33 -2 71
-6 85 -9 15 -3 43 -8 62 -9 41 -5 134 -16 170 -21 14 -2 50 -6 80 -10 30 -4
66 -8 80 -10 14 -2 48 -7 75 -10 59 -6 102 -12 170 -21 28 -3 64 -8 80 -9 17
-2 48 -6 70 -9 40 -6 112 -15 170 -21 67 -7 302 -36 330 -40 70 -12 148 -21
245 -31 113 -11 184 -45 262 -127 32 -32 65 -72 73 -88 49 -95 79 -161 90
-204 5 -16 9 -32 10 -35 2 -7 28 -121 32 -140 28 -136 22 -384 -14 -550 -9
-41 -17 -82 -18 -90 -1 -8 -6 -24 -10 -35 -67 -171 -112 -250 -184 -322 -41
-41 -141 -109 -141 -97 0 4 -11 -1 -25 -10 -14 -9 -25 -14 -25 -11 0 2 -12 0
-27 -6 -35 -14 -149 -20 -358 -18 -44 0 -82 -1 -85 -2 -3 -1 -9 0 -15 1 -5 1
-156 3 -335 6 -482 5 -830 12 -1665 29 -121 3 -235 6 -253 8 -18 2 -35 0 -38
-5 -3 -5 -10 -5 -16 -2 -5 4 -90 8 -187 10 -168 3 -276 5 -931 19 -157 4 -306
8 -332 9 -27 1 -49 -1 -49 -4 -4 -17 -20 -914 -22 -1214 l-2 -229 70 3 c195 8
423 17 675 26 74 2 189 6 255 9 66 2 194 7 285 10 195 6 371 12 570 20 206 8
391 14 569 20 85 2 156 7 159 9 2 3 12 1 22 -4 10 -5 20 -7 23 -3 6 6 78 9
412 18 99 2 180 5 180 5 0 1 63 3 140 5 77 2 235 7 350 10 475 15 599 13 651
-7 112 -42 221 -200 300 -431 19 -54 36 -108 38 -120 3 -12 13 -51 22 -87 23
-92 23 -333 0 -400 -3 -8 -7 -31 -10 -50 -5 -33 -12 -62 -47 -182 -7 -27 -17
-48 -21 -48 -4 0 -8 -8 -8 -18 0 -26 -83 -160 -132 -214 -24 -26 -66 -63 -95
-82 -74 -48 -154 -73 -298 -91 -27 -3 -65 -8 -82 -11 -18 -2 -48 -6 -65 -8
-18 -3 -55 -8 -83 -12 -27 -4 -66 -8 -85 -9 -19 -2 -35 -4 -35 -5 0 -2 -23 -5
-110 -14 -72 -7 -138 -15 -185 -22 -19 -3 -53 -8 -75 -10 -22 -2 -67 -7 -100
-11 -33 -3 -76 -8 -95 -9 -19 -1 -35 -3 -35 -4 0 -1 -11 -3 -25 -4 -14 -2 -57
-6 -96 -10 -39 -4 -80 -8 -90 -10 -11 -2 -50 -7 -89 -10 -38 -4 -83 -10 -100
-12 -16 -3 -52 -7 -80 -10 -27 -2 -66 -6 -85 -8 -19 -3 -60 -8 -90 -11 -30 -3
-68 -7 -85 -9 -16 -2 -66 -7 -110 -11 -44 -4 -89 -9 -100 -11 -11 -2 -45 -7
-75 -9 -30 -3 -73 -7 -95 -10 -22 -2 -67 -6 -100 -10 -33 -3 -73 -7 -90 -10
-16 -2 -57 -7 -90 -10 -61 -6 -91 -9 -180 -20 -27 -3 -70 -8 -95 -10 -93 -9
-156 -15 -200 -21 -25 -3 -63 -7 -85 -9 -22 -2 -62 -6 -90 -10 -27 -3 -72 -8
-100 -10 -27 -3 -66 -7 -85 -10 -19 -3 -66 -8 -105 -11 -38 -4 -83 -8 -100 -9
-16 -2 -57 -6 -90 -9 -77 -8 -141 -15 -185 -21 -34 -4 -116 -13 -190 -20 -19
-2 -57 -6 -85 -9 -27 -3 -75 -8 -105 -11 -30 -2 -73 -6 -95 -9 -22 -3 -67 -7
-100 -11 -33 -4 -61 -8 -63 -10 -2 -2 -4 -19 -5 -39 -1 -20 -6 -36 -11 -36 -5
0 -7 -3 -4 -6 9 -8 -17 -86 -62 -189 -61 -137 -293 -404 -409 -469 -9 -5 -18
-12 -21 -16 -8 -11 -180 -120 -190 -120 -4 0 -10 -3 -12 -7 -1 -5 -23 -18 -48
-30 -25 -12 -77 -37 -117 -56 -39 -19 -85 -38 -102 -42 -17 -3 -33 -11 -36
-16 -4 -5 -16 -9 -29 -9 -12 0 -26 -4 -31 -9 -6 -6 -21 -12 -35 -15 -14 -3
-41 -10 -60 -16 -19 -6 -46 -13 -60 -16 -14 -3 -38 -9 -55 -14 -16 -5 -48 -11
-70 -14 -22 -4 -56 -8 -76 -11 -20 -3 -69 -7 -110 -9 -41 -3 -78 -5 -84 -6 -5
-1 -12 -2 -15 0 -3 1 -36 3 -75 5 -57 3 -185 24 -230 38 -5 2 -26 7 -45 11
-19 5 -41 13 -49 20 -8 6 -16 10 -18 9 -1 -2 -4 -3 -5 -2 -2 0 -11 2 -21 4
-10 2 -38 13 -63 24 -24 12 -48 21 -54 21 -5 0 -10 5 -10 12 0 6 -3 9 -6 5
-11 -10 -207 105 -271 159 -12 11 -36 30 -54 44 -126 97 -305 312 -394 474
l-20 36 -73 -92 c-100 -128 -182 -221 -234 -263 -99 -81 -274 -157 -413 -180
-11 -1 -51 -8 -90 -14 -76 -12 -134 -19 -179 -20 -35 -1 -26 -15 12 -18 15 -1
38 -4 52 -8 14 -3 39 -8 55 -11 17 -3 62 -11 100 -19 74 -15 106 -21 169 -30
21 -4 48 -9 60 -11 11 -3 35 -7 51 -9 17 -3 41 -7 55 -11 23 -5 35 -7 100 -18
14 -3 25 -5 25 -6 0 -1 9 -3 20 -5 11 -1 36 -6 55 -9 19 -4 51 -9 70 -12 58
-9 75 -12 75 -14 0 -2 35 -9 90 -16 28 -3 53 -8 57 -10 4 -3 22 -7 40 -10 18
-3 42 -6 53 -9 11 -2 36 -6 55 -9 19 -3 46 -8 60 -11 66 -15 129 -26 165 -31
22 -3 46 -7 54 -10 8 -3 30 -7 50 -10 41 -6 65 -10 101 -19 14 -3 40 -7 59
-10 18 -2 41 -7 50 -9 15 -5 30 -8 111 -21 19 -3 49 -8 65 -12 17 -3 39 -7 50
-9 11 -2 56 -10 99 -19 44 -8 93 -18 110 -21 31 -5 182 -33 221 -40 11 -2 45
-8 75 -14 30 -5 66 -12 80 -14 14 -3 39 -8 55 -11 17 -3 53 -10 80 -15 28 -6
64 -12 80 -15 17 -2 55 -9 85 -15 30 -6 71 -13 90 -16 19 -2 50 -8 70 -13 19
-5 69 -15 110 -21 73 -12 86 -14 133 -25 12 -3 36 -7 52 -9 17 -3 42 -7 55
-10 29 -7 73 -15 115 -21 17 -3 40 -7 53 -10 45 -10 58 -13 102 -20 50 -8 61
-10 140 -26 79 -15 90 -17 139 -24 25 -3 48 -8 51 -10 11 -7 104 -19 140 -19
34 1 62 6 145 24 22 5 56 11 75 15 19 3 58 10 85 15 28 6 60 12 73 15 13 2 33
7 44 11 11 3 30 7 41 9 12 1 63 10 112 20 50 10 99 19 111 20 11 1 24 4 30 7
5 4 30 9 54 13 56 8 58 8 210 40 127 26 152 31 205 40 25 5 77 16 95 20 3 1
28 5 55 10 57 10 64 12 68 15 1 1 11 3 22 4 38 6 91 15 162 30 90 19 132 28
158 31 11 2 20 4 20 5 0 2 34 9 85 16 25 3 52 10 61 15 9 4 18 6 21 4 2 -2 20
0 39 5 34 9 63 15 128 26 50 8 71 13 89 18 9 3 33 7 52 10 19 3 46 8 60 11 14
3 61 12 105 21 44 8 87 18 95 21 8 3 18 5 22 5 5 -1 60 9 124 23 65 13 121 22
125 19 5 -3 9 -1 9 3 0 5 8 9 18 10 20 2 43 6 149 27 43 9 92 18 108 21 17 3
41 8 55 11 14 3 79 16 145 29 66 13 131 26 145 29 14 2 63 12 110 21 47 9 96
19 109 22 50 9 427 85 446 89 11 3 34 7 50 9 17 2 41 6 55 9 14 3 34 8 45 10
11 2 31 7 45 10 14 3 36 8 50 10 14 3 50 10 80 16 30 7 66 13 80 15 14 2 25 4
25 5 0 1 7 3 15 5 48 10 155 53 220 88 124 67 226 153 336 282 64 75 175 241
167 249 -4 3 -2 6 3 6 6 0 28 37 49 82 22 46 43 85 48 86 4 2 7 11 7 21 0 9 7
27 16 39 8 12 12 22 8 22 -3 0 1 11 10 25 9 14 14 25 11 25 -3 0 1 13 10 30 9
16 12 30 8 30 -5 0 -3 4 2 8 9 6 55 140 71 205 2 9 6 25 9 35 9 33 35 137 39
157 9 44 36 192 40 220 2 17 7 48 10 70 37 240 39 661 6 900 -12 84 -43 242
-60 310 -6 22 -12 47 -14 55 -23 85 -107 285 -157 368 -33 56 -99 142 -136
177 l-34 32 27 49 c15 27 32 58 38 69 6 11 16 27 23 35 6 8 12 18 12 23 0 4
12 33 27 65 14 31 34 77 43 102 10 25 22 54 26 65 5 11 10 25 10 30 1 6 5 19
9 30 21 56 27 72 31 90 3 11 14 56 25 100 23 89 24 95 45 214 15 90 24 156 30
236 2 28 5 50 6 50 6 0 4 404 -2 422 -5 13 -4 25 2 28 5 4 7 10 4 15 -6 10
-13 58 -19 130 -3 30 -7 66 -10 80 -2 14 -7 48 -11 75 -11 74 -13 88 -20 115
-3 14 -8 39 -10 55 -3 17 -12 57 -20 90 -9 33 -18 71 -21 85 -3 14 -10 41 -16
60 -6 19 -12 40 -13 45 -1 6 -3 13 -4 17 -1 4 -9 27 -17 50 -9 24 -17 50 -19
60 -2 9 -11 30 -19 47 -9 17 -14 31 -12 31 3 0 -7 26 -21 58 -13 31 -32 73
-40 92 -125 288 -310 547 -500 703 -76 62 -195 137 -217 137 -8 0 -16 4 -18 8
-3 8 -179 68 -226 77 -12 2 -26 6 -30 9 -5 3 -19 7 -33 9 -13 3 -44 10 -69 17
-25 7 -53 14 -62 16 -10 2 -28 7 -40 10 -13 3 -39 9 -58 14 -19 5 -44 10 -55
13 -59 14 -263 60 -280 63 -11 2 -50 10 -86 18 -36 8 -77 17 -90 20 -13 3 -35
7 -49 10 -108 23 -117 25 -195 41 -38 7 -83 17 -100 20 -16 4 -39 8 -50 10
-11 2 -51 10 -90 18 -38 9 -87 18 -109 21 -21 4 -42 8 -46 11 -4 2 -32 7 -61
11 -30 3 -57 8 -62 11 -4 2 -20 6 -35 9 -24 4 -46 8 -152 29 -14 3 -36 7 -50
10 -82 14 -189 34 -215 40 -16 3 -68 13 -115 21 -47 9 -94 18 -105 20 -11 2
-33 6 -50 8 -16 3 -55 10 -85 16 -98 19 -256 48 -300 54 -14 2 -74 13 -135 24
-60 11 -126 23 -145 26 -19 3 -46 8 -60 11 -68 13 -148 28 -170 30 -14 2 -36
6 -50 9 -14 4 -38 8 -55 10 -32 5 -38 6 -210 36 -60 11 -122 21 -137 22 -16 1
-28 5 -28 8 0 3 -12 5 -27 6 -16 0 -44 4 -63 7 -62 12 -84 16 -120 21 -34 6
-49 8 -115 21 -16 3 -48 8 -70 11 -55 8 -76 11 -105 18 -14 3 -42 8 -62 11
l-37 5 3 -766z"/>
<path d="M2237 9283 c-2 -4 -3 -1358 -2 -3008 2 -2783 4 -3017 25 -3082 8 -27
15 -44 28 -73 9 -19 16 -37 17 -40 1 -14 88 -129 117 -156 82 -77 175 -128
291 -159 56 -16 247 -18 247 -4 0 6 5 7 10 4 20 -13 193 57 228 91 7 8 17 14
21 14 14 0 116 104 148 150 36 54 83 157 87 192 2 14 7 31 12 39 5 8 9 1153
10 2787 l1 2774 -26 10 c-14 6 -40 17 -58 24 -17 8 -34 14 -38 14 -4 0 -21 6
-38 14 -29 12 -92 37 -212 83 -22 9 -53 21 -70 28 -25 11 -67 25 -85 30 -3 1
-16 6 -30 12 -14 6 -45 19 -70 28 -67 25 -82 31 -110 43 -14 6 -77 31 -140 55
-63 24 -124 48 -135 52 -11 4 -25 9 -31 10 -6 2 -27 10 -45 18 -19 8 -54 23
-79 32 -25 9 -50 19 -56 22 -7 2 -14 1 -17 -4z"/>
<path d="M27 8942 c-5 -10 0 -5394 5 -5412 3 -8 10 -35 17 -60 20 -69 80 -171
130 -220 151 -149 336 -202 546 -156 11 2 21 5 23 6 1 2 5 3 10 4 28 6 133 62
166 90 78 64 136 131 136 155 0 6 3 11 8 11 8 0 49 100 58 140 3 14 8 36 11
50 3 14 6 1136 6 2494 l1 2470 -30 17 c-17 9 -41 20 -55 24 -25 8 -240 90
-274 105 -11 5 -139 54 -285 110 -146 55 -274 105 -285 109 -11 5 -29 12 -40
16 -11 4 -48 18 -82 31 -34 13 -64 20 -66 16z"/>
</g>
</svg>
