<?xml version="1.0" encoding="UTF-8"?>
<!DOCTYPE svg PUBLIC "-//W3C//DTD SVG 1.1//EN" "http://www.w3.org/Graphics/SVG/1.1/DTD/svg11.dtd">
<!-- Creator: CorelDRAW 2020 (64-Bit) -->
<svg xmlns="http://www.w3.org/2000/svg" xml:space="preserve" width="52px" height="45px" version="1.1" style="shape-rendering:geometricPrecision; text-rendering:geometricPrecision; image-rendering:optimizeQuality; fill-rule:evenodd; clip-rule:evenodd"
viewBox="0 0 12.45 10.68"
 xmlns:xlink="http://www.w3.org/1999/xlink"
 xmlns:xodm="http://www.corel.com/coreldraw/odm/2003">
 <defs>
  <style type="text/css">
   <![CDATA[
    .fil0 {fill:#1E40AF}
    .fil1 {fill:#FB923C}
   ]]>
  </style>
 </defs>
 <g id="Слой_x0020_1">
  <metadata id="CorelCorpID_0Corel-Layer"/>
  <path class="fil0" d="M0.68 7.89l0 0c-0.38,0 -0.68,-0.29 -0.68,-0.66l0 -6.4 1.34 0.51 0 5.89c0,0.37 -0.3,0.66 -0.66,0.66z"/>
  <path class="fil0" d="M3.4 8.29l0 0c-0.41,0 -0.74,-0.34 -0.74,-0.75l0 -7.12 1.49 0.58 0 6.54c0,0.41 -0.34,0.75 -0.75,0.75z"/>
  <path class="fil1" d="M0.72 9.76l4.98 0.92 5.4 -1.07c1.46,-0.32 1.74,-3.45 0.84,-4.24 0.92,-1.47 0.25,-3.98 -0.9,-4.33 -1.15,-0.36 -5.28,-1.04 -5.28,-1.04l0.01 1.85c0,0 4.77,0.59 5.17,0.64 0.39,0.05 0.54,0.62 0.54,0.99 0,0.38 -0.12,1.07 -0.7,1.09 -0.59,0.02 -4.99,-0.09 -4.99,-0.09l-0.03 1.74c0,0 4.84,-0.18 5.17,-0.16 0.34,0.01 0.54,0.78 0.54,0.98 0,0.2 -0.07,0.98 -0.61,1.08 -0.53,0.11 -5.33,0.6 -5.33,0.6 -0.08,0.83 -1.35,1.49 -2.16,1.37 -0.82,-0.12 -1.26,-0.75 -1.4,-1.02 -0.31,0.39 -0.41,0.64 -1.25,0.69l0 0 0 0 0 0z"/>
 </g>
</svg>
