<?xml version="1.0" encoding="utf-8"?>
<!-- Generator: Adobe Illustrator 24.0.1, SVG Export Plug-In . SVG Version: 6.00 Build 0)  -->
<svg version="1.1" id="Layer_1" xmlns="http://www.w3.org/2000/svg" xmlns:xlink="http://www.w3.org/1999/xlink" x="0px" y="0px"
	 viewBox="0 0 1067.5 246.9" style="enable-background:new 0 0 1067.5 246.9;" xml:space="preserve">
<style type="text/css">
	.st0{fill:#fff;}
	.st1{fill:#fff;}
</style>
<g>
	<path class="st0" d="M15.6,182.5L15.6,182.5C7,182.5,0,175.6,0,167V19.1l31.1,12V167C31.1,175.6,24.1,182.5,15.6,182.5z"/>
	<path class="st0" d="M78.7,191.6L78.7,191.6c-9.6,0-17.3-7.8-17.3-17.3V9.6L96,23v151.2C96,183.8,88.2,191.6,78.7,191.6z"/>
	<path class="st1" d="M16.6,225.6l115.1,21.3l124.9-24.7c33.6-7.5,40.1-79.8,19.3-98.2c21.3-33.8,5.8-91.8-20.7-100S133.1,0,133.1,0
		l0.2,42.7c0,0,110.4,13.8,119.6,14.9c9.1,1.1,12.4,14.2,12.4,22.9s-2.7,24.7-16.2,25.1c-13.6,0.4-115.3-2-115.3-2l-0.7,40.2
		c0,0,111.8-4.2,119.6-3.8s12.4,18,12.4,22.7c0,4.7-1.6,22.7-14,25.1c-12.4,2.4-123.3,13.8-123.3,13.8c-1.8,19.1-31.1,34.4-50,31.6
		s-29.1-17.4-32.2-23.6C38.4,218.7,36,224.4,16.6,225.6z"/>
	<g>
		<g>
			<path class="st0" d="M439.9,167.3h-19l-14.7-57.7l-14.6,57.7h-19l-24.1-84.1h20l14.7,60.8l16-60.8h14l15.9,60.8l14.6-60.8h20.2
				L439.9,167.3z"/>
			<path class="st0" d="M509.6,168.8c-12.7,0-23.2-4.1-31.5-12.3c-8.3-8.2-12.4-18.6-12.4-31.2s4.1-23,12.4-31.2
				c8.3-8.2,18.8-12.3,31.5-12.3c12.8,0,23.3,4.1,31.6,12.2c8.3,8.2,12.4,18.6,12.4,31.3c0,12.7-4.1,23.1-12.4,31.3
				C532.9,164.7,522.4,168.8,509.6,168.8z M491.2,145.1c4.7,5.2,10.8,7.8,18.5,7.8c7.6,0,13.8-2.6,18.5-7.8
				c4.7-5.2,7.1-11.8,7.1-19.8c0-8-2.4-14.6-7.1-19.8c-4.7-5.2-10.9-7.8-18.5-7.8c-7.6,0-13.8,2.6-18.5,7.8c-4.7,5.2-7,11.8-7,19.8
				C484.2,133.3,486.5,139.9,491.2,145.1z"/>
			<path class="st0" d="M634.3,167.3h-20.5l-16.5-29.9h-13.1v29.9h-17.9V83.2h39.3c8.7,0,15.5,2.5,20.6,7.6c5.1,5,7.6,11.6,7.6,19.5
				c0,6.9-1.8,12.5-5.4,16.8c-3.6,4.3-7.9,7-13,8.2L634.3,167.3z M602.9,121.6c3.7,0,6.7-1,9.1-3.1c2.4-2.1,3.5-4.8,3.5-8.3
				c0-3.4-1.2-6.2-3.5-8.3c-2.4-2.1-5.4-3.1-9.1-3.1h-18.8v22.7H602.9z"/>
			<path class="st0" d="M719.2,167.3h-22.1l-25.5-33.7l-6.6,7.8v25.8h-17.9V83.2h17.9v37.6l29.7-37.6H717l-33.4,39.5L719.2,167.3z"
				/>
		</g>
	</g>
	<g>
		<g>
			<path class="st0" d="M809.1,167.3h-45.6V83.2h44.2c7.6,0,13.6,2.1,17.8,6.2c4.2,4.2,6.4,9.2,6.4,15.2c0,5.1-1.4,9.4-4.2,12.9
				c-2.8,3.4-6.2,5.6-10.3,6.4c4.5,0.7,8.4,3,11.5,6.9c3.1,4,4.7,8.5,4.7,13.7c0,6.6-2.1,12-6.4,16.3
				C822.8,165.1,816.8,167.3,809.1,167.3z M803.8,116.8c3,0,5.4-0.8,7.2-2.5c1.8-1.7,2.6-3.9,2.6-6.6c0-2.7-0.9-4.9-2.7-6.6
				c-1.8-1.7-4.2-2.6-7.1-2.6h-22.4v18.3H803.8z M804.4,151.8c3.4,0,6-0.9,7.9-2.6c1.9-1.7,2.9-4.1,2.9-7.1c0-2.8-1-5.1-2.9-7
				c-1.9-1.9-4.6-2.8-7.9-2.8h-23.1v19.5H804.4z"/>
			<path class="st0" d="M925.5,167.3H905l-5.2-14.2h-36.1l-5.3,14.2h-20.4l32.5-84.1h22.4L925.5,167.3z M894.9,137.3l-13.1-36.2
				l-13.1,36.2H894.9z"/>
			<path class="st0" d="M962.3,168.8c-15,0-26.8-4.5-35.5-13.4l9.7-13.6c7.2,7.6,16.1,11.3,26.7,11.3c4.6,0,8.2-0.9,10.8-2.7
				c2.6-1.8,3.8-4,3.8-6.6c0-2.3-1.2-4.2-3.6-5.7c-2.4-1.5-5.4-2.6-8.9-3.3c-3.6-0.7-7.5-1.6-11.7-2.9c-4.2-1.3-8.1-2.7-11.7-4.3
				c-3.6-1.6-6.6-4.1-9-7.6c-2.4-3.4-3.6-7.6-3.6-12.6c0-7.2,2.9-13.3,8.7-18.2s13.5-7.4,23.2-7.4c13.4,0,24.3,3.9,32.8,11.7
				l-10,13.1c-6.6-6.1-14.8-9.2-24.5-9.2c-3.8,0-6.7,0.8-8.8,2.3c-2.1,1.5-3.2,3.6-3.2,6.2c0,2,1.2,3.7,3.6,5.1
				c2.4,1.4,5.4,2.4,8.9,3.1c3.6,0.7,7.4,1.7,11.6,3c4.2,1.3,8,2.8,11.6,4.4c3.6,1.6,6.6,4.2,9,7.7c2.4,3.5,3.6,7.7,3.6,12.5
				c0,8.1-2.9,14.6-8.6,19.5C981.5,166.3,973.2,168.8,962.3,168.8z"/>
			<path class="st0" d="M1067.5,167.3H1008V83.2h59.5v15.8h-41.6v17.8h40.7v15.8h-40.7v19h41.6V167.3z"/>
		</g>
	</g>
</g>
</svg>
