<?xml version="1.0" encoding="UTF-8"?>
<!DOCTYPE svg PUBLIC "-//W3C//DTD SVG 1.1//EN" "http://www.w3.org/Graphics/SVG/1.1/DTD/svg11.dtd">
<!-- Creator: CorelDRAW 2017 -->
<svg xmlns="http://www.w3.org/2000/svg" xml:space="preserve" width="403.723mm" height="82.9304mm" version="1.1" style="shape-rendering:geometricPrecision; text-rendering:geometricPrecision; image-rendering:optimizeQuality; fill-rule:evenodd; clip-rule:evenodd" viewBox="0 0 40582.15 8336.15" xmlns:xlink="http://www.w3.org/1999/xlink">
    <defs>
        <style type="text/css">
            <![CDATA[
    .fil0 {fill:mediumblue}
    .fil1 {fill:orange}
   ]]>
        </style>
    </defs>
    <g id="Слой_x0020_1">
        <metadata id="CorelCorpID_0Corel-Layer" />
        <path class="fil0" d="M526.7 6161.8l0 0c-290.36,0 -526.7,-232.96 -526.7,-523.34l0 -4993.57 1050.04 405.16 0 4588.42c0,290.37 -236.34,523.34 -523.34,523.34z" />
        <path class="fil0" d="M2657.17 6469.05l0 0c-324.13,0 -584.11,-263.36 -584.11,-584.11l0.01 -5560.8 1168.2 452.42 0 5105c0,324.14 -263.35,587.49 -584.1,587.49z" />
        <path class="fil1" d="M560.47 7616.99l3886.15 719.16 4217.03 -833.95c1134.45,-253.22 1353.9,-2694.3 651.63,-3315.56 719.16,-1141.2 195.83,-3099.46 -698.9,-3376.32 -894.73,-276.87 -4122.48,-810.32 -4122.48,-810.32l6.75 1441.7c0,0 3727.47,465.93 4038.08,503.07 307.24,37.14 418.67,479.44 418.67,773.17 0,293.74 -91.16,833.95 -546.97,847.46 -459.17,13.51 -3892.9,-67.53 -3892.9,-67.53l-23.63 1357.28c0,0 3774.73,-141.8 4038.08,-128.29 263.35,13.5 418.67,607.73 418.67,766.41 0,158.69 -54.02,766.42 -472.68,847.46 -418.67,81.03 -4163.01,465.93 -4163.01,465.93 -60.77,644.89 -1050.04,1161.46 -1688.16,1066.92 -638.12,-94.53 -982.52,-587.48 -1087.18,-796.8 -243.09,307.25 -324.13,499.69 -979.13,540.21z" />
        <polygon class="fil0" points="14629.72,5888.22 13844.03,5888.22 13236.16,3502.22 12632.42,5888.22 11846.74,5888.22 10850.15,2410.54 11677.19,2410.53 12285.06,4924.72 12946.7,2410.53 13525.62,2410.53 14183.11,4924.72 14786.85,2410.53 15622.15,2410.53 " />
        <path class="fil0" d="M17511.95 5950.24c-525.17,0 -959.37,-169.54 -1302.58,-508.62 -343.23,-339.08 -512.77,-769.14 -512.77,-1290.17 0,-521.04 169.55,-951.1 512.77,-1290.18 343.21,-339.08 777.41,-508.62 1302.58,-508.62 529.31,0 963.49,169.54 1306.72,504.49 343.23,339.08 512.76,769.15 512.76,1294.32 0,525.17 -169.54,955.22 -512.76,1294.31 -343.23,334.93 -777.42,504.47 -1306.72,504.47zm-760.89 -980.04c194.36,215.03 446.61,322.55 765.02,322.55 314.28,0 570.65,-107.52 765.01,-322.55 194.36,-215.03 293.6,-487.94 293.6,-818.76 0,-330.81 -99.25,-603.74 -293.6,-818.77 -194.36,-215.03 -450.73,-322.55 -765.01,-322.55 -314.28,0 -570.66,107.52 -765.02,322.55 -194.36,215.03 -289.46,487.94 -289.46,818.77 0,330.82 95.1,603.73 289.46,818.76z" />
        <path class="fil0" d="M22668.52 5888.22l-847.71 0 -682.31 -1236.41 -541.71 -0.01 0 1236.41 -740.2 0.01 0 -3477.7 1625.13 0c359.76,0 640.95,103.37 851.85,314.28 210.9,206.76 314.28,479.68 314.28,806.36 0,285.34 -74.43,516.89 -223.29,694.7 -148.87,177.82 -326.68,289.47 -537.58,339.08l781.55 1323.27zm-1298.45 -1889.78c152.99,0 277.05,-41.35 376.3,-128.19 99.24,-86.84 144.73,-198.49 144.73,-343.23 0,-140.6 -49.63,-256.38 -144.73,-343.23 -99.25,-86.84 -223.3,-128.19 -376.3,-128.19l-777.43 0.01 0 938.68 777.43 0.01 0 4.13z" />
        <polygon class="fil0" points="26179.29,5888.22 25265.42,5888.22 24210.95,4494.66 23938.03,4817.22 23938.03,5884.09 23197.82,5884.08 23197.82,2410.53 23938.02,2410.53 23938.02,3965.35 25166.16,2410.53 26088.32,2410.53 24707.17,4043.92 " />
        <path class="fil0" d="M29896.81 5888.22l-1885.64 0 0 -3477.7 1827.75 0c314.29,0 562.39,86.84 736.07,256.38 173.69,173.68 264.65,380.44 264.65,628.54 0,210.9 -57.89,388.72 -173.68,533.44 -115.78,140.6 -256.38,231.58 -425.93,264.65 186.08,28.95 347.36,124.05 475.55,285.34 128.19,165.42 194.36,351.5 194.36,566.53 0,272.91 -86.84,496.22 -264.65,674.03 -181.94,177.83 -430.05,268.8 -748.47,268.8zm-219.15 -2088.27c124.05,0 223.29,-33.09 297.73,-103.38 74.43,-70.3 107.53,-161.26 107.53,-272.91 0,-111.66 -37.22,-202.63 -111.66,-272.92 -74.43,-70.3 -173.68,-107.53 -293.59,-107.53l-926.29 0 0 756.74 926.28 0zm24.8 1447.31c140.6,0 248.12,-37.21 326.68,-107.52 78.57,-70.3 119.93,-169.55 119.93,-293.6 0,-115.78 -41.35,-210.9 -119.93,-289.47 -78.56,-78.56 -190.21,-115.78 -326.68,-115.78l-955.22 0 0 806.36 955.22 0z" />
        <path class="fil0" d="M34710.18 5888.22l-847.71 0 -215.02 -587.2 -1492.81 0 -219.15 587.2 -843.59 0 1343.94 -3477.69 926.28 -0.01 1348.07 3477.7zm-1265.36 -1240.56l-541.71 -1496.93 -541.71 1496.93 1083.42 0z" />
        <path class="fil0" d="M36231.93 5950.24c-620.28,0 -1108.24,-186.08 -1467.99,-554.11l401.11 -562.39c297.73,314.28 665.76,467.28 1104.09,467.28 190.21,0 339.08,-37.21 446.6,-111.65 107.53,-74.43 157.14,-165.42 157.14,-272.92 0,-95.11 -49.62,-173.68 -148.87,-235.7 -99.24,-62.04 -223.3,-107.53 -368.02,-136.47 -148.87,-28.95 -310.14,-66.16 -483.82,-119.93 -173.68,-53.76 -334.95,-111.65 -483.82,-177.81 -148.86,-66.16 -272.92,-169.54 -372.16,-314.28 -99.25,-140.6 -148.87,-314.28 -148.87,-521.03 0,-297.74 119.92,-549.98 359.77,-752.61 239.84,-202.63 558.25,-306 959.36,-306 554.12,0 1004.86,161.26 1356.34,483.81l-413.52 541.71c-272.92,-252.24 -612.02,-380.44 -1013.12,-380.44 -157.13,0 -277.05,33.08 -363.89,95.1 -86.84,62.04 -132.32,148.87 -132.32,256.39 0,82.7 49.62,152.99 148.87,210.89 99.24,57.9 223.29,99.25 368.02,128.19 148.87,28.95 306,70.3 479.68,124.06 173.68,53.76 330.81,115.78 479.67,181.94 148.87,66.16 272.92,173.68 372.17,318.41 99.24,144.73 148.87,318.41 148.87,516.89 0,334.95 -119.93,603.74 -355.63,806.36 -235.71,210.92 -578.92,314.3 -1029.67,314.3z" />
        <polygon class="fil0" points="40582.15,5888.22 38121.71,5888.22 38121.71,2410.53 40582.15,2410.53 40582.15,3063.89 38861.91,3063.89 38861.91,3799.95 40544.92,3799.95 40544.92,4453.31 38861.91,4453.31 38861.91,5238.99 40582.15,5238.99 " />
    </g>
</svg>