<?xml version="1.0" encoding="UTF-8"?>
<!DOCTYPE svg PUBLIC "-//W3C//DTD SVG 1.1//EN" "http://www.w3.org/Graphics/SVG/1.1/DTD/svg11.dtd">
<!-- Creator: CorelDRAW 2020 (64-Bit) -->
<svg xmlns="http://www.w3.org/2000/svg" xml:space="preserve" width="220px" height="43px" version="1.1" style="shape-rendering:geometricPrecision; text-rendering:geometricPrecision; image-rendering:optimizeQuality; fill-rule:evenodd; clip-rule:evenodd"
viewBox="0 0 231.09 45.19"
 xmlns:xlink="http://www.w3.org/1999/xlink"
 xmlns:xodm="http://www.corel.com/coreldraw/odm/2003">
 <defs>
  <style type="text/css">
   <![CDATA[
    .fil0 {fill:#fff}
    .fil1 {fill:#fff}
    .fil2 {fill:#fff;fill-rule:nonzero}
   ]]>
  </style>
 </defs>
 <g id="Слой_x0020_1">
  <metadata id="CorelCorpID_0Corel-Layer"/>
  <path class="fil0" d="M2.86 33.4l0 0c-1.58,0 -2.86,-1.26 -2.86,-2.83l0 -27.07 5.69 2.19 0 24.88c0,1.57 -1.28,2.83 -2.83,2.83z"/>
  <path class="fil0" d="M14.4 35.07l0 0c-1.75,0 -3.16,-1.43 -3.16,-3.17l0 -30.14 6.33 2.45 0 27.67c0,1.76 -1.43,3.19 -3.17,3.19z"/>
  <path class="fil1" d="M3.04 41.29l21.07 3.9 22.86 -4.52c6.15,-1.37 7.34,-14.61 3.53,-17.97 3.9,-6.19 1.06,-16.81 -3.79,-18.31 -4.85,-1.5 -22.35,-4.39 -22.35,-4.39l0.04 7.82c0,0 20.21,2.52 21.89,2.72 1.66,0.2 2.27,2.6 2.27,4.19 0,1.6 -0.5,4.53 -2.97,4.6 -2.49,0.07 -21.1,-0.37 -21.1,-0.37l-0.13 7.36c0,0 20.47,-0.77 21.89,-0.7 1.43,0.08 2.27,3.3 2.27,4.16 0,0.86 -0.29,4.15 -2.56,4.59 -2.27,0.44 -22.57,2.53 -22.57,2.53 -0.33,3.5 -5.69,6.3 -9.15,5.78 -3.46,-0.51 -5.33,-3.18 -5.89,-4.32 -1.32,1.67 -1.76,2.71 -5.31,2.93l0 0z"/>
  <polygon class="fil0" points="79.31,31.92 75.05,31.92 71.75,18.99 68.48,31.92 64.22,31.92 58.82,13.07 63.3,13.07 66.6,26.7 70.19,13.07 73.32,13.07 76.89,26.7 80.16,13.07 84.69,13.07 "/>
  <path class="fil0" d="M94.93 32.26c-2.84,0 -5.2,-0.92 -7.06,-2.76 -1.86,-1.84 -2.78,-4.17 -2.78,-6.99 0,-2.83 0.92,-5.16 2.78,-7 1.86,-1.84 4.22,-2.76 7.06,-2.76 2.87,0 5.23,0.92 7.09,2.74 1.86,1.84 2.78,4.17 2.78,7.02 0,2.84 -0.92,5.17 -2.78,7.01 -1.86,1.82 -4.22,2.74 -7.09,2.74l0 0zm-4.12 -5.32c1.05,1.17 2.42,1.75 4.15,1.75 1.7,0 3.09,-0.58 4.14,-1.75 1.06,-1.16 1.6,-2.64 1.6,-4.43 0,-1.8 -0.54,-3.28 -1.6,-4.44 -1.05,-1.17 -2.44,-1.75 -4.14,-1.75 -1.71,0 -3.1,0.58 -4.15,1.75 -1.05,1.16 -1.57,2.64 -1.57,4.44 0,1.79 0.52,3.27 1.57,4.43z"/>
  <path class="fil0" d="M122.89 31.92l-4.6 0 -3.7 -6.7 -2.93 0 0 6.7 -4.02 0 0 -18.85 8.81 0c1.95,0 3.48,0.56 4.62,1.7 1.15,1.12 1.71,2.6 1.71,4.37 0,1.55 -0.41,2.8 -1.21,3.77 -0.81,0.96 -1.78,1.57 -2.92,1.84l4.24 7.17 0 0zm-7.04 -10.24c0.83,0 1.5,-0.23 2.04,-0.7 0.54,-0.47 0.78,-1.08 0.78,-1.86 0,-0.76 -0.27,-1.39 -0.78,-1.86 -0.54,-0.47 -1.21,-0.7 -2.04,-0.7l-4.22 0 0 5.09 4.22 0 0 0.03z"/>
  <polygon class="fil0" points="141.92,31.92 136.97,31.92 131.25,24.37 129.77,26.11 129.77,31.9 125.76,31.9 125.76,13.07 129.77,13.07 129.77,21.5 136.43,13.07 141.43,13.07 133.94,21.92 "/>
  <path class="fil0" d="M162.07 31.92l-10.22 0 0 -18.85 9.91 0c1.7,0 3.05,0.47 3.99,1.39 0.94,0.94 1.43,2.06 1.43,3.4 0,1.15 -0.31,2.11 -0.94,2.9 -0.62,0.76 -1.39,1.25 -2.31,1.43 1.01,0.16 1.89,0.67 2.58,1.55 0.7,0.9 1.06,1.9 1.06,3.07 0,1.48 -0.47,2.69 -1.44,3.65 -0.99,0.97 -2.33,1.46 -4.06,1.46l0 0zm-1.18 -11.32c0.67,0 1.21,-0.18 1.61,-0.56 0.4,-0.38 0.58,-0.87 0.58,-1.48 0,-0.61 -0.2,-1.1 -0.6,-1.48 -0.41,-0.38 -0.94,-0.58 -1.59,-0.58l-5.03 0 0 4.1 5.03 0 0 0zm0.13 7.85c0.76,0 1.35,-0.21 1.77,-0.59 0.43,-0.38 0.65,-0.92 0.65,-1.59 0,-0.63 -0.22,-1.14 -0.65,-1.57 -0.42,-0.42 -1.03,-0.63 -1.77,-0.63l-5.18 0 0 4.38 5.18 0 0 0z"/>
  <path class="fil0" d="M188.17 31.92l-4.6 0 -1.16 -3.18 -8.1 0 -1.18 3.18 -4.58 0 7.29 -18.85 5.02 0 7.31 18.85 0 0zm-6.86 -6.72l-2.94 -8.12 -2.94 8.12 5.88 0z"/>
  <path class="fil0" d="M196.42 32.26c-3.37,0 -6.01,-1.01 -7.96,-3.01l2.17 -3.05c1.62,1.71 3.61,2.54 5.99,2.54 1.03,0 1.84,-0.2 2.42,-0.61 0.58,-0.4 0.85,-0.89 0.85,-1.48 0,-0.51 -0.27,-0.94 -0.81,-1.28 -0.53,-0.33 -1.21,-0.58 -1.99,-0.73 -0.81,-0.16 -1.68,-0.36 -2.62,-0.66 -0.94,-0.29 -1.82,-0.6 -2.63,-0.96 -0.8,-0.36 -1.48,-0.92 -2.01,-1.7 -0.54,-0.76 -0.81,-1.71 -0.81,-2.83 0,-1.61 0.65,-2.98 1.95,-4.08 1.3,-1.1 3.03,-1.66 5.2,-1.66 3,0 5.45,0.88 7.35,2.63l-2.24 2.93c-1.48,-1.36 -3.32,-2.06 -5.49,-2.06 -0.85,0 -1.5,0.18 -1.97,0.52 -0.47,0.33 -0.72,0.8 -0.72,1.39 0,0.44 0.27,0.83 0.81,1.14 0.53,0.31 1.21,0.54 1.99,0.69 0.81,0.16 1.66,0.39 2.6,0.68 0.94,0.29 1.8,0.62 2.6,0.98 0.81,0.36 1.48,0.94 2.02,1.73 0.54,0.78 0.81,1.73 0.81,2.8 0,1.82 -0.65,3.27 -1.93,4.37 -1.28,1.15 -3.14,1.71 -5.58,1.71l0 0 0 0z"/>
  <polygon class="fil0" points="220,31.92 206.66,31.92 206.66,13.07 220,13.07 220,16.61 210.67,16.61 210.67,20.6 219.8,20.6 219.8,24.14 210.67,24.14 210.67,28.4 220,28.4 "/>
  <g id="_2439605470464">
   <path class="fil2" d="M225.42 0.38c-0.27,0.02 -0.43,0.04 -0.65,0.08 -0.88,0.14 -1.83,0.57 -2.53,1.12 -0.32,0.25 -0.63,0.57 -0.88,0.91 -0.44,0.57 -0.79,1.3 -0.97,2.02 -0.07,0.27 -0.11,0.52 -0.14,0.82 -0.02,0.2 -0.02,0.73 0,0.92 0.07,0.73 0.24,1.34 0.56,2 0.29,0.58 0.61,1.03 1.05,1.46 0.4,0.39 0.82,0.68 1.37,0.96 0.65,0.31 1.24,0.48 1.95,0.55 0.2,0.02 0.74,0.03 0.93,0.01 0.72,-0.07 1.32,-0.23 1.95,-0.54 1.06,-0.51 1.83,-1.25 2.38,-2.27 0.36,-0.68 0.56,-1.37 0.64,-2.13 0.02,-0.2 0.02,-0.73 0,-0.91 -0.07,-0.76 -0.25,-1.4 -0.59,-2.07 -0.55,-1.07 -1.32,-1.84 -2.4,-2.36 -0.64,-0.31 -1.27,-0.49 -1.94,-0.55 -0.14,-0.01 -0.62,-0.02 -0.73,-0.02l0 0zm0.65 1.21c0.61,0.06 1.22,0.26 1.79,0.59 0.3,0.17 0.55,0.36 0.81,0.62 0.33,0.33 0.55,0.64 0.78,1.09 0.25,0.52 0.39,0.98 0.45,1.56 0.01,0.17 0.01,0.6 -0.01,0.77 -0.05,0.52 -0.19,0.99 -0.42,1.46 -0.41,0.85 -1.01,1.47 -1.85,1.9 -0.85,0.43 -1.75,0.57 -2.66,0.42 -0.69,-0.12 -1.42,-0.45 -1.97,-0.89 -0.33,-0.26 -0.6,-0.55 -0.83,-0.89 -0.4,-0.61 -0.65,-1.28 -0.72,-2 -0.02,-0.17 -0.02,-0.6 -0.01,-0.77 0.07,-0.69 0.27,-1.29 0.64,-1.9 0.46,-0.75 1.1,-1.29 1.97,-1.65 0.45,-0.19 0.9,-0.29 1.37,-0.33 0.16,-0.01 0.49,0 0.66,0.02l0 0z"/>
   <path class="fil2" d="M225.42 2.47c-0.4,0.04 -0.75,0.14 -1.1,0.31 -0.32,0.16 -0.57,0.36 -0.84,0.63 -0.54,0.56 -0.88,1.31 -0.95,2.13 -0.01,0.16 -0.01,0.59 0.01,0.74 0.13,0.99 0.62,1.83 1.39,2.38 0.42,0.31 0.94,0.5 1.47,0.55 0.16,0.01 0.51,0.01 0.67,-0.02 0.91,-0.14 1.69,-0.66 2.2,-1.48 0.13,-0.21 0.32,-0.61 0.33,-0.71 0,-0.05 -0.03,-0.11 -0.07,-0.15 -0.02,-0.01 -0.19,-0.08 -0.51,-0.19 -0.52,-0.18 -0.53,-0.18 -0.61,-0.14 -0.04,0.03 -0.05,0.04 -0.1,0.16 -0.15,0.38 -0.42,0.72 -0.74,0.93 -0.11,0.07 -0.17,0.1 -0.29,0.15 -0.43,0.19 -0.9,0.18 -1.33,-0.03 -0.57,-0.27 -0.98,-0.86 -1.08,-1.56 -0.02,-0.13 -0.03,-0.4 -0.02,-0.54 0.03,-0.32 0.14,-0.65 0.29,-0.91 0.57,-0.97 1.7,-1.22 2.55,-0.57 0.16,0.13 0.3,0.28 0.43,0.48 0.04,0.06 0.09,0.12 0.1,0.13 0.04,0.03 0.09,0.04 0.13,0.03 0.03,-0.01 0.86,-0.48 0.92,-0.52 0.04,-0.03 0.07,-0.09 0.07,-0.14 0,-0.04 -0.01,-0.06 -0.05,-0.13 -0.21,-0.37 -0.59,-0.77 -0.95,-1.01 -0.45,-0.3 -0.89,-0.47 -1.42,-0.52 -0.15,-0.01 -0.37,-0.01 -0.5,0l0 0z"/>
  </g>
 </g>
</svg>
